<mxfile host="65bd71144e">
    <diagram id="z6YzZh-cMMeW0PnIwgjF" name="Page-1">
        <mxGraphModel dx="1811" dy="1791" grid="1" gridSize="10" guides="1" tooltips="1" connect="1" arrows="1" fold="1" page="1" pageScale="1" pageWidth="850" pageHeight="1100" math="0" shadow="0">
            <root>
                <object label="" id="0">
                    <mxCell/>
                </object>
                <mxCell id="532" value="background" style="" parent="0"/>
                <mxCell id="533" value="" style="shape=table;startSize=0;container=1;collapsible=0;childLayout=tableLayout;rounded=0;shadow=0;labelBackgroundColor=#FFFFFF;sketch=0;strokeColor=#36393d;strokeWidth=1;fontSize=12;fillColor=#f9f7ed;" parent="532" vertex="1">
                    <mxGeometry x="390" y="25" width="140" height="200" as="geometry"/>
                </mxCell>
                <mxCell id="534" value="" style="shape=tableRow;horizontal=0;startSize=0;swimlaneHead=0;swimlaneBody=0;top=0;left=0;bottom=0;right=0;collapsible=0;dropTarget=0;fillColor=none;points=[[0,0.5],[1,0.5]];portConstraint=eastwest;rounded=0;shadow=0;labelBackgroundColor=#FFFFFF;sketch=0;strokeColor=#000000;strokeWidth=1;fontSize=12;fontColor=#000000;" parent="533" vertex="1">
                    <mxGeometry width="140" height="40" as="geometry"/>
                </mxCell>
                <mxCell id="535" value="[ADMIN] Template" style="shape=partialRectangle;html=1;whiteSpace=wrap;connectable=0;overflow=hidden;fillColor=none;top=0;left=0;bottom=0;right=0;pointerEvents=1;rounded=0;shadow=0;labelBackgroundColor=#FFFFFF;sketch=0;strokeColor=#000000;strokeWidth=1;fontSize=12;fontColor=#000000;" parent="534" vertex="1">
                    <mxGeometry width="140" height="40" as="geometry">
                        <mxRectangle width="140" height="40" as="alternateBounds"/>
                    </mxGeometry>
                </mxCell>
                <mxCell id="536" value="" style="shape=tableRow;horizontal=0;startSize=0;swimlaneHead=0;swimlaneBody=0;top=0;left=0;bottom=0;right=0;collapsible=0;dropTarget=0;fillColor=none;points=[[0,0.5],[1,0.5]];portConstraint=eastwest;rounded=0;shadow=0;labelBackgroundColor=#FFFFFF;sketch=0;strokeColor=#000000;strokeWidth=1;fontSize=12;fontColor=#000000;" parent="533" vertex="1">
                    <mxGeometry y="40" width="140" height="40" as="geometry"/>
                </mxCell>
                <mxCell id="537" value="Template UUID" style="shape=partialRectangle;html=1;whiteSpace=wrap;connectable=0;overflow=hidden;fillColor=none;top=0;left=0;bottom=0;right=0;pointerEvents=1;rounded=0;shadow=0;labelBackgroundColor=#FFFFFF;sketch=0;strokeColor=#000000;strokeWidth=1;fontSize=12;fontColor=#000000;" parent="536" vertex="1">
                    <mxGeometry width="140" height="40" as="geometry">
                        <mxRectangle width="140" height="40" as="alternateBounds"/>
                    </mxGeometry>
                </mxCell>
                <mxCell id="538" value="" style="shape=tableRow;horizontal=0;startSize=0;swimlaneHead=0;swimlaneBody=0;top=0;left=0;bottom=0;right=0;collapsible=0;dropTarget=0;fillColor=none;points=[[0,0.5],[1,0.5]];portConstraint=eastwest;rounded=0;shadow=0;labelBackgroundColor=#FFFFFF;sketch=0;strokeColor=#000000;strokeWidth=1;fontSize=12;fontColor=#000000;" parent="533" vertex="1">
                    <mxGeometry y="80" width="140" height="40" as="geometry"/>
                </mxCell>
                <mxCell id="539" value="Template Type" style="shape=partialRectangle;html=1;whiteSpace=wrap;connectable=0;overflow=hidden;fillColor=none;top=0;left=0;bottom=0;right=0;pointerEvents=1;rounded=0;shadow=0;labelBackgroundColor=#FFFFFF;sketch=0;strokeColor=#000000;strokeWidth=1;fontSize=12;fontColor=#000000;" parent="538" vertex="1">
                    <mxGeometry width="140" height="40" as="geometry">
                        <mxRectangle width="140" height="40" as="alternateBounds"/>
                    </mxGeometry>
                </mxCell>
                <mxCell id="540" value="" style="shape=tableRow;horizontal=0;startSize=0;swimlaneHead=0;swimlaneBody=0;top=0;left=0;bottom=0;right=0;collapsible=0;dropTarget=0;fillColor=none;points=[[0,0.5],[1,0.5]];portConstraint=eastwest;rounded=0;shadow=0;labelBackgroundColor=#FFFFFF;sketch=0;strokeColor=#000000;strokeWidth=1;fontSize=12;fontColor=#000000;" parent="533" vertex="1">
                    <mxGeometry y="120" width="140" height="40" as="geometry"/>
                </mxCell>
                <mxCell id="541" value="Title" style="shape=partialRectangle;html=1;whiteSpace=wrap;connectable=0;overflow=hidden;fillColor=none;top=0;left=0;bottom=0;right=0;pointerEvents=1;rounded=0;shadow=0;labelBackgroundColor=#FFFFFF;sketch=0;strokeColor=#000000;strokeWidth=1;fontSize=12;fontColor=#000000;" parent="540" vertex="1">
                    <mxGeometry width="140" height="40" as="geometry">
                        <mxRectangle width="140" height="40" as="alternateBounds"/>
                    </mxGeometry>
                </mxCell>
                <mxCell id="542" value="" style="shape=tableRow;horizontal=0;startSize=0;swimlaneHead=0;swimlaneBody=0;top=0;left=0;bottom=0;right=0;collapsible=0;dropTarget=0;fillColor=none;points=[[0,0.5],[1,0.5]];portConstraint=eastwest;rounded=0;shadow=0;labelBackgroundColor=#FFFFFF;sketch=0;strokeColor=#000000;strokeWidth=1;fontSize=12;fontColor=#000000;" parent="533" vertex="1">
                    <mxGeometry y="160" width="140" height="40" as="geometry"/>
                </mxCell>
                <mxCell id="543" value="Description" style="shape=partialRectangle;html=1;whiteSpace=wrap;connectable=0;overflow=hidden;fillColor=none;top=0;left=0;bottom=0;right=0;pointerEvents=1;rounded=0;shadow=0;labelBackgroundColor=#FFFFFF;sketch=0;strokeColor=#000000;strokeWidth=1;fontSize=12;fontColor=#000000;" parent="542" vertex="1">
                    <mxGeometry width="140" height="40" as="geometry">
                        <mxRectangle width="140" height="40" as="alternateBounds"/>
                    </mxGeometry>
                </mxCell>
                <mxCell id="544" value="" style="shape=table;startSize=0;container=1;collapsible=0;childLayout=tableLayout;rounded=0;shadow=0;labelBackgroundColor=#FFFFFF;sketch=0;strokeWidth=1;fontSize=12;fillColor=#f9f7ed;strokeColor=#36393d;" parent="532" vertex="1">
                    <mxGeometry x="620" y="25" width="170" height="280" as="geometry"/>
                </mxCell>
                <mxCell id="545" value="" style="shape=tableRow;horizontal=0;startSize=0;swimlaneHead=0;swimlaneBody=0;top=0;left=0;bottom=0;right=0;collapsible=0;dropTarget=0;fillColor=none;points=[[0,0.5],[1,0.5]];portConstraint=eastwest;rounded=0;shadow=0;labelBackgroundColor=#FFFFFF;sketch=0;strokeColor=#000000;strokeWidth=1;fontSize=12;fontColor=#000000;" parent="544" vertex="1">
                    <mxGeometry width="170" height="40" as="geometry"/>
                </mxCell>
                <mxCell id="546" value="[ADMIN] Template Options Params" style="shape=partialRectangle;html=1;whiteSpace=wrap;connectable=0;overflow=hidden;fillColor=none;top=0;left=0;bottom=0;right=0;pointerEvents=1;rounded=0;shadow=0;labelBackgroundColor=#FFFFFF;sketch=0;strokeColor=#000000;strokeWidth=1;fontSize=12;fontColor=#000000;" parent="545" vertex="1">
                    <mxGeometry width="170" height="40" as="geometry">
                        <mxRectangle width="170" height="40" as="alternateBounds"/>
                    </mxGeometry>
                </mxCell>
                <mxCell id="547" value="" style="shape=tableRow;horizontal=0;startSize=0;swimlaneHead=0;swimlaneBody=0;top=0;left=0;bottom=0;right=0;collapsible=0;dropTarget=0;fillColor=none;points=[[0,0.5],[1,0.5]];portConstraint=eastwest;rounded=0;shadow=0;labelBackgroundColor=#FFFFFF;sketch=0;strokeColor=#000000;strokeWidth=1;fontSize=12;fontColor=#000000;" parent="544" vertex="1">
                    <mxGeometry y="40" width="170" height="40" as="geometry"/>
                </mxCell>
                <mxCell id="548" value="Tempalte Params UUID" style="shape=partialRectangle;html=1;whiteSpace=wrap;connectable=0;overflow=hidden;fillColor=none;top=0;left=0;bottom=0;right=0;pointerEvents=1;rounded=0;shadow=0;labelBackgroundColor=#FFFFFF;sketch=0;strokeColor=#000000;strokeWidth=1;fontSize=12;fontColor=#000000;" parent="547" vertex="1">
                    <mxGeometry width="170" height="40" as="geometry">
                        <mxRectangle width="170" height="40" as="alternateBounds"/>
                    </mxGeometry>
                </mxCell>
                <mxCell id="549" value="" style="shape=tableRow;horizontal=0;startSize=0;swimlaneHead=0;swimlaneBody=0;top=0;left=0;bottom=0;right=0;collapsible=0;dropTarget=0;fillColor=none;points=[[0,0.5],[1,0.5]];portConstraint=eastwest;rounded=0;shadow=0;labelBackgroundColor=#FFFFFF;sketch=0;strokeColor=#000000;strokeWidth=1;fontSize=12;fontColor=#000000;" parent="544" vertex="1">
                    <mxGeometry y="80" width="170" height="40" as="geometry"/>
                </mxCell>
                <mxCell id="550" value="Template UUID" style="shape=partialRectangle;html=1;whiteSpace=wrap;connectable=0;overflow=hidden;fillColor=none;top=0;left=0;bottom=0;right=0;pointerEvents=1;rounded=0;shadow=0;labelBackgroundColor=#FFFFFF;sketch=0;strokeColor=#000000;strokeWidth=1;fontSize=12;fontColor=#000000;" parent="549" vertex="1">
                    <mxGeometry width="170" height="40" as="geometry">
                        <mxRectangle width="170" height="40" as="alternateBounds"/>
                    </mxGeometry>
                </mxCell>
                <mxCell id="551" value="" style="shape=tableRow;horizontal=0;startSize=0;swimlaneHead=0;swimlaneBody=0;top=0;left=0;bottom=0;right=0;collapsible=0;dropTarget=0;fillColor=none;points=[[0,0.5],[1,0.5]];portConstraint=eastwest;rounded=0;shadow=0;labelBackgroundColor=#FFFFFF;sketch=0;strokeColor=#000000;strokeWidth=1;fontSize=12;fontColor=#000000;" parent="544" vertex="1">
                    <mxGeometry y="120" width="170" height="40" as="geometry"/>
                </mxCell>
                <mxCell id="552" value="Name" style="shape=partialRectangle;html=1;whiteSpace=wrap;connectable=0;overflow=hidden;fillColor=none;top=0;left=0;bottom=0;right=0;pointerEvents=1;rounded=0;shadow=0;labelBackgroundColor=#FFFFFF;sketch=0;strokeColor=#000000;strokeWidth=1;fontSize=12;fontColor=#000000;" parent="551" vertex="1">
                    <mxGeometry width="170" height="40" as="geometry">
                        <mxRectangle width="170" height="40" as="alternateBounds"/>
                    </mxGeometry>
                </mxCell>
                <mxCell id="553" value="" style="shape=tableRow;horizontal=0;startSize=0;swimlaneHead=0;swimlaneBody=0;top=0;left=0;bottom=0;right=0;collapsible=0;dropTarget=0;fillColor=none;points=[[0,0.5],[1,0.5]];portConstraint=eastwest;rounded=0;shadow=0;labelBackgroundColor=#FFFFFF;sketch=0;strokeColor=#000000;strokeWidth=1;fontSize=12;fontColor=#000000;" parent="544" vertex="1">
                    <mxGeometry y="160" width="170" height="40" as="geometry"/>
                </mxCell>
                <mxCell id="554" value="Target Units" style="shape=partialRectangle;html=1;whiteSpace=wrap;connectable=0;overflow=hidden;fillColor=none;top=0;left=0;bottom=0;right=0;pointerEvents=1;rounded=0;shadow=0;labelBackgroundColor=#FFFFFF;sketch=0;strokeColor=#000000;strokeWidth=1;fontSize=12;fontColor=#000000;" parent="553" vertex="1">
                    <mxGeometry width="170" height="40" as="geometry">
                        <mxRectangle width="170" height="40" as="alternateBounds"/>
                    </mxGeometry>
                </mxCell>
                <mxCell id="555" style="shape=tableRow;horizontal=0;startSize=0;swimlaneHead=0;swimlaneBody=0;top=0;left=0;bottom=0;right=0;collapsible=0;dropTarget=0;fillColor=none;points=[[0,0.5],[1,0.5]];portConstraint=eastwest;rounded=0;shadow=0;labelBackgroundColor=#FFFFFF;sketch=0;strokeColor=#000000;strokeWidth=1;fontSize=12;fontColor=#000000;" parent="544" vertex="1">
                    <mxGeometry y="200" width="170" height="40" as="geometry"/>
                </mxCell>
                <mxCell id="556" value="Default Value" style="shape=partialRectangle;html=1;whiteSpace=wrap;connectable=0;overflow=hidden;fillColor=none;top=0;left=0;bottom=0;right=0;pointerEvents=1;rounded=0;shadow=0;labelBackgroundColor=#FFFFFF;sketch=0;strokeColor=#000000;strokeWidth=1;fontSize=12;fontColor=#000000;" parent="555" vertex="1">
                    <mxGeometry width="170" height="40" as="geometry">
                        <mxRectangle width="170" height="40" as="alternateBounds"/>
                    </mxGeometry>
                </mxCell>
                <mxCell id="557" style="shape=tableRow;horizontal=0;startSize=0;swimlaneHead=0;swimlaneBody=0;top=0;left=0;bottom=0;right=0;collapsible=0;dropTarget=0;fillColor=none;points=[[0,0.5],[1,0.5]];portConstraint=eastwest;rounded=0;shadow=0;labelBackgroundColor=#FFFFFF;sketch=0;strokeColor=#000000;strokeWidth=1;fontSize=12;fontColor=#000000;" parent="544" vertex="1">
                    <mxGeometry y="240" width="170" height="40" as="geometry"/>
                </mxCell>
                <mxCell id="558" value="Description?" style="shape=partialRectangle;html=1;whiteSpace=wrap;connectable=0;overflow=hidden;fillColor=none;top=0;left=0;bottom=0;right=0;pointerEvents=1;rounded=0;shadow=0;labelBackgroundColor=#FFFFFF;sketch=0;strokeColor=#000000;strokeWidth=1;fontSize=12;fontColor=#000000;" parent="557" vertex="1">
                    <mxGeometry width="170" height="40" as="geometry">
                        <mxRectangle width="170" height="40" as="alternateBounds"/>
                    </mxGeometry>
                </mxCell>
                <mxCell id="559" value="" style="edgeStyle=orthogonalEdgeStyle;html=1;strokeColor=#2b6fc7;fontSize=12;fontColor=#000000;exitX=1;exitY=0.5;exitDx=0;exitDy=0;" parent="532" source="536" target="549" edge="1">
                    <mxGeometry relative="1" as="geometry">
                        <mxPoint x="220" y="110" as="sourcePoint"/>
                        <mxPoint x="280" y="110" as="targetPoint"/>
                        <Array as="points">
                            <mxPoint x="570" y="85"/>
                            <mxPoint x="570" y="120"/>
                        </Array>
                    </mxGeometry>
                </mxCell>
                <mxCell id="560" value="" style="shape=table;startSize=0;container=1;collapsible=0;childLayout=tableLayout;rounded=0;shadow=0;labelBackgroundColor=#FFFFFF;sketch=0;strokeWidth=1;fontSize=12;fillColor=#f9f7ed;strokeColor=#36393d;" parent="532" vertex="1">
                    <mxGeometry x="620" y="350" width="170" height="280" as="geometry"/>
                </mxCell>
                <mxCell id="561" value="" style="shape=tableRow;horizontal=0;startSize=0;swimlaneHead=0;swimlaneBody=0;top=0;left=0;bottom=0;right=0;collapsible=0;dropTarget=0;fillColor=none;points=[[0,0.5],[1,0.5]];portConstraint=eastwest;rounded=0;shadow=0;labelBackgroundColor=#FFFFFF;sketch=0;strokeColor=#000000;strokeWidth=1;fontSize=12;fontColor=#000000;" parent="560" vertex="1">
                    <mxGeometry width="170" height="40" as="geometry"/>
                </mxCell>
                <mxCell id="562" value="[ADMIN] Template Locs Structure" style="shape=partialRectangle;html=1;whiteSpace=wrap;connectable=0;overflow=hidden;fillColor=none;top=0;left=0;bottom=0;right=0;pointerEvents=1;rounded=0;shadow=0;labelBackgroundColor=#FFFFFF;sketch=0;strokeColor=#000000;strokeWidth=1;fontSize=12;fontColor=#000000;" parent="561" vertex="1">
                    <mxGeometry width="170" height="40" as="geometry">
                        <mxRectangle width="170" height="40" as="alternateBounds"/>
                    </mxGeometry>
                </mxCell>
                <mxCell id="563" value="" style="shape=tableRow;horizontal=0;startSize=0;swimlaneHead=0;swimlaneBody=0;top=0;left=0;bottom=0;right=0;collapsible=0;dropTarget=0;fillColor=none;points=[[0,0.5],[1,0.5]];portConstraint=eastwest;rounded=0;shadow=0;labelBackgroundColor=#FFFFFF;sketch=0;strokeColor=#000000;strokeWidth=1;fontSize=12;fontColor=#000000;" parent="560" vertex="1">
                    <mxGeometry y="40" width="170" height="40" as="geometry"/>
                </mxCell>
                <mxCell id="564" value="Template Locs Structure UUID" style="shape=partialRectangle;html=1;whiteSpace=wrap;connectable=0;overflow=hidden;fillColor=none;top=0;left=0;bottom=0;right=0;pointerEvents=1;rounded=0;shadow=0;labelBackgroundColor=#FFFFFF;sketch=0;strokeColor=#000000;strokeWidth=1;fontSize=12;fontColor=#000000;" parent="563" vertex="1">
                    <mxGeometry width="170" height="40" as="geometry">
                        <mxRectangle width="170" height="40" as="alternateBounds"/>
                    </mxGeometry>
                </mxCell>
                <mxCell id="565" value="" style="shape=tableRow;horizontal=0;startSize=0;swimlaneHead=0;swimlaneBody=0;top=0;left=0;bottom=0;right=0;collapsible=0;dropTarget=0;fillColor=none;points=[[0,0.5],[1,0.5]];portConstraint=eastwest;rounded=0;shadow=0;labelBackgroundColor=#FFFFFF;sketch=0;strokeColor=#000000;strokeWidth=1;fontSize=12;fontColor=#000000;" parent="560" vertex="1">
                    <mxGeometry y="80" width="170" height="40" as="geometry"/>
                </mxCell>
                <mxCell id="566" value="Template UUID" style="shape=partialRectangle;html=1;whiteSpace=wrap;connectable=0;overflow=hidden;fillColor=none;top=0;left=0;bottom=0;right=0;pointerEvents=1;rounded=0;shadow=0;labelBackgroundColor=#FFFFFF;sketch=0;strokeColor=#000000;strokeWidth=1;fontSize=12;fontColor=#000000;" parent="565" vertex="1">
                    <mxGeometry width="170" height="40" as="geometry">
                        <mxRectangle width="170" height="40" as="alternateBounds"/>
                    </mxGeometry>
                </mxCell>
                <mxCell id="567" value="" style="shape=tableRow;horizontal=0;startSize=0;swimlaneHead=0;swimlaneBody=0;top=0;left=0;bottom=0;right=0;collapsible=0;dropTarget=0;fillColor=none;points=[[0,0.5],[1,0.5]];portConstraint=eastwest;rounded=0;shadow=0;labelBackgroundColor=#FFFFFF;sketch=0;strokeColor=#000000;strokeWidth=1;fontSize=12;fontColor=#000000;" parent="560" vertex="1">
                    <mxGeometry y="120" width="170" height="40" as="geometry"/>
                </mxCell>
                <mxCell id="568" value="Name" style="shape=partialRectangle;html=1;whiteSpace=wrap;connectable=0;overflow=hidden;fillColor=none;top=0;left=0;bottom=0;right=0;pointerEvents=1;rounded=0;shadow=0;labelBackgroundColor=#FFFFFF;sketch=0;strokeColor=#000000;strokeWidth=1;fontSize=12;fontColor=#000000;" parent="567" vertex="1">
                    <mxGeometry width="170" height="40" as="geometry">
                        <mxRectangle width="170" height="40" as="alternateBounds"/>
                    </mxGeometry>
                </mxCell>
                <mxCell id="569" value="" style="shape=tableRow;horizontal=0;startSize=0;swimlaneHead=0;swimlaneBody=0;top=0;left=0;bottom=0;right=0;collapsible=0;dropTarget=0;fillColor=none;points=[[0,0.5],[1,0.5]];portConstraint=eastwest;rounded=0;shadow=0;labelBackgroundColor=#FFFFFF;sketch=0;strokeColor=#000000;strokeWidth=1;fontSize=12;fontColor=#000000;" parent="560" vertex="1">
                    <mxGeometry y="160" width="170" height="40" as="geometry"/>
                </mxCell>
                <mxCell id="570" value="Lat Offset" style="shape=partialRectangle;html=1;whiteSpace=wrap;connectable=0;overflow=hidden;fillColor=none;top=0;left=0;bottom=0;right=0;pointerEvents=1;rounded=0;shadow=0;labelBackgroundColor=#FFFFFF;sketch=0;strokeColor=#000000;strokeWidth=1;fontSize=12;fontColor=#000000;" parent="569" vertex="1">
                    <mxGeometry width="170" height="40" as="geometry">
                        <mxRectangle width="170" height="40" as="alternateBounds"/>
                    </mxGeometry>
                </mxCell>
                <mxCell id="571" style="shape=tableRow;horizontal=0;startSize=0;swimlaneHead=0;swimlaneBody=0;top=0;left=0;bottom=0;right=0;collapsible=0;dropTarget=0;fillColor=none;points=[[0,0.5],[1,0.5]];portConstraint=eastwest;rounded=0;shadow=0;labelBackgroundColor=#FFFFFF;sketch=0;strokeColor=#000000;strokeWidth=1;fontSize=12;fontColor=#000000;" parent="560" vertex="1">
                    <mxGeometry y="200" width="170" height="40" as="geometry"/>
                </mxCell>
                <mxCell id="572" value="Long Offset" style="shape=partialRectangle;html=1;whiteSpace=wrap;connectable=0;overflow=hidden;fillColor=none;top=0;left=0;bottom=0;right=0;pointerEvents=1;rounded=0;shadow=0;labelBackgroundColor=#FFFFFF;sketch=0;strokeColor=#000000;strokeWidth=1;fontSize=12;fontColor=#000000;" parent="571" vertex="1">
                    <mxGeometry width="170" height="40" as="geometry">
                        <mxRectangle width="170" height="40" as="alternateBounds"/>
                    </mxGeometry>
                </mxCell>
                <mxCell id="573" style="shape=tableRow;horizontal=0;startSize=0;swimlaneHead=0;swimlaneBody=0;top=0;left=0;bottom=0;right=0;collapsible=0;dropTarget=0;fillColor=none;points=[[0,0.5],[1,0.5]];portConstraint=eastwest;rounded=0;shadow=0;labelBackgroundColor=#FFFFFF;sketch=0;strokeColor=#000000;strokeWidth=1;fontSize=12;fontColor=#000000;" parent="560" vertex="1">
                    <mxGeometry y="240" width="170" height="40" as="geometry"/>
                </mxCell>
                <mxCell id="574" value="Primary Location" style="shape=partialRectangle;html=1;whiteSpace=wrap;connectable=0;overflow=hidden;fillColor=none;top=0;left=0;bottom=0;right=0;pointerEvents=1;rounded=0;shadow=0;labelBackgroundColor=#FFFFFF;sketch=0;strokeColor=#000000;strokeWidth=1;fontSize=12;fontColor=#000000;" parent="573" vertex="1">
                    <mxGeometry width="170" height="40" as="geometry">
                        <mxRectangle width="170" height="40" as="alternateBounds"/>
                    </mxGeometry>
                </mxCell>
                <mxCell id="575" value="" style="edgeStyle=orthogonalEdgeStyle;html=1;strokeColor=#2b6fc7;fontSize=12;fontColor=#000000;entryX=0;entryY=0.5;entryDx=0;entryDy=0;" parent="532" source="536" target="565" edge="1">
                    <mxGeometry relative="1" as="geometry">
                        <mxPoint x="540" y="95" as="sourcePoint"/>
                        <mxPoint x="630" y="130" as="targetPoint"/>
                        <Array as="points">
                            <mxPoint x="560" y="85"/>
                            <mxPoint x="560" y="450"/>
                        </Array>
                    </mxGeometry>
                </mxCell>
                <mxCell id="576" value="" style="shape=table;startSize=0;container=1;collapsible=0;childLayout=tableLayout;rounded=0;shadow=0;labelBackgroundColor=#FFFFFF;sketch=0;strokeWidth=1;fontSize=12;fillColor=#f9f7ed;strokeColor=#36393d;" parent="532" vertex="1">
                    <mxGeometry x="620" y="680" width="170" height="320" as="geometry"/>
                </mxCell>
                <mxCell id="577" value="" style="shape=tableRow;horizontal=0;startSize=0;swimlaneHead=0;swimlaneBody=0;top=0;left=0;bottom=0;right=0;collapsible=0;dropTarget=0;fillColor=none;points=[[0,0.5],[1,0.5]];portConstraint=eastwest;rounded=0;shadow=0;labelBackgroundColor=#FFFFFF;sketch=0;strokeColor=#000000;strokeWidth=1;fontSize=12;fontColor=#000000;" parent="576" vertex="1">
                    <mxGeometry width="170" height="40" as="geometry"/>
                </mxCell>
                <mxCell id="578" value="[ADMIN] Template Techs Structure" style="shape=partialRectangle;html=1;whiteSpace=wrap;connectable=0;overflow=hidden;fillColor=none;top=0;left=0;bottom=0;right=0;pointerEvents=1;rounded=0;shadow=0;labelBackgroundColor=#FFFFFF;sketch=0;strokeColor=#000000;strokeWidth=1;fontSize=12;fontColor=#000000;" parent="577" vertex="1">
                    <mxGeometry width="170" height="40" as="geometry">
                        <mxRectangle width="170" height="40" as="alternateBounds"/>
                    </mxGeometry>
                </mxCell>
                <mxCell id="579" value="" style="shape=tableRow;horizontal=0;startSize=0;swimlaneHead=0;swimlaneBody=0;top=0;left=0;bottom=0;right=0;collapsible=0;dropTarget=0;fillColor=none;points=[[0,0.5],[1,0.5]];portConstraint=eastwest;rounded=0;shadow=0;labelBackgroundColor=#FFFFFF;sketch=0;strokeColor=#000000;strokeWidth=1;fontSize=12;fontColor=#000000;" parent="576" vertex="1">
                    <mxGeometry y="40" width="170" height="40" as="geometry"/>
                </mxCell>
                <mxCell id="580" value="Template Techs Structure UUID" style="shape=partialRectangle;html=1;whiteSpace=wrap;connectable=0;overflow=hidden;fillColor=none;top=0;left=0;bottom=0;right=0;pointerEvents=1;rounded=0;shadow=0;labelBackgroundColor=#FFFFFF;sketch=0;strokeColor=#000000;strokeWidth=1;fontSize=12;fontColor=#000000;" parent="579" vertex="1">
                    <mxGeometry width="170" height="40" as="geometry">
                        <mxRectangle width="170" height="40" as="alternateBounds"/>
                    </mxGeometry>
                </mxCell>
                <mxCell id="581" value="" style="shape=tableRow;horizontal=0;startSize=0;swimlaneHead=0;swimlaneBody=0;top=0;left=0;bottom=0;right=0;collapsible=0;dropTarget=0;fillColor=none;points=[[0,0.5],[1,0.5]];portConstraint=eastwest;rounded=0;shadow=0;labelBackgroundColor=#FFFFFF;sketch=0;strokeColor=#000000;strokeWidth=1;fontSize=12;fontColor=#000000;" parent="576" vertex="1">
                    <mxGeometry y="80" width="170" height="40" as="geometry"/>
                </mxCell>
                <mxCell id="582" value="Template UUID" style="shape=partialRectangle;html=1;whiteSpace=wrap;connectable=0;overflow=hidden;fillColor=none;top=0;left=0;bottom=0;right=0;pointerEvents=1;rounded=0;shadow=0;labelBackgroundColor=#FFFFFF;sketch=0;strokeColor=#000000;strokeWidth=1;fontSize=12;fontColor=#000000;" parent="581" vertex="1">
                    <mxGeometry width="170" height="40" as="geometry">
                        <mxRectangle width="170" height="40" as="alternateBounds"/>
                    </mxGeometry>
                </mxCell>
                <mxCell id="583" value="" style="shape=tableRow;horizontal=0;startSize=0;swimlaneHead=0;swimlaneBody=0;top=0;left=0;bottom=0;right=0;collapsible=0;dropTarget=0;fillColor=none;points=[[0,0.5],[1,0.5]];portConstraint=eastwest;rounded=0;shadow=0;labelBackgroundColor=#FFFFFF;sketch=0;strokeColor=#000000;strokeWidth=1;fontSize=12;fontColor=#000000;" parent="576" vertex="1">
                    <mxGeometry y="120" width="170" height="40" as="geometry"/>
                </mxCell>
                <mxCell id="584" value="Name" style="shape=partialRectangle;html=1;whiteSpace=wrap;connectable=0;overflow=hidden;fillColor=none;top=0;left=0;bottom=0;right=0;pointerEvents=1;rounded=0;shadow=0;labelBackgroundColor=#FFFFFF;sketch=0;strokeColor=#000000;strokeWidth=1;fontSize=12;fontColor=#000000;" parent="583" vertex="1">
                    <mxGeometry width="170" height="40" as="geometry">
                        <mxRectangle width="170" height="40" as="alternateBounds"/>
                    </mxGeometry>
                </mxCell>
                <mxCell id="585" value="" style="shape=tableRow;horizontal=0;startSize=0;swimlaneHead=0;swimlaneBody=0;top=0;left=0;bottom=0;right=0;collapsible=0;dropTarget=0;fillColor=none;points=[[0,0.5],[1,0.5]];portConstraint=eastwest;rounded=0;shadow=0;labelBackgroundColor=#FFFFFF;sketch=0;strokeColor=#000000;strokeWidth=1;fontSize=12;fontColor=#000000;" parent="576" vertex="1">
                    <mxGeometry y="160" width="170" height="40" as="geometry"/>
                </mxCell>
                <mxCell id="586" value="Technology Type" style="shape=partialRectangle;html=1;whiteSpace=wrap;connectable=0;overflow=hidden;fillColor=none;top=0;left=0;bottom=0;right=0;pointerEvents=1;rounded=0;shadow=0;labelBackgroundColor=#FFFFFF;sketch=0;strokeColor=#000000;strokeWidth=1;fontSize=12;fontColor=#000000;" parent="585" vertex="1">
                    <mxGeometry width="170" height="40" as="geometry">
                        <mxRectangle width="170" height="40" as="alternateBounds"/>
                    </mxGeometry>
                </mxCell>
                <mxCell id="587" style="shape=tableRow;horizontal=0;startSize=0;swimlaneHead=0;swimlaneBody=0;top=0;left=0;bottom=0;right=0;collapsible=0;dropTarget=0;fillColor=none;points=[[0,0.5],[1,0.5]];portConstraint=eastwest;rounded=0;shadow=0;labelBackgroundColor=#FFFFFF;sketch=0;strokeColor=#000000;strokeWidth=1;fontSize=12;fontColor=#000000;" parent="576" vertex="1">
                    <mxGeometry y="200" width="170" height="40" as="geometry"/>
                </mxCell>
                <mxCell id="588" value="Carrier In" style="shape=partialRectangle;html=1;whiteSpace=wrap;connectable=0;overflow=hidden;fillColor=none;top=0;left=0;bottom=0;right=0;pointerEvents=1;rounded=0;shadow=0;labelBackgroundColor=#FFFFFF;sketch=0;strokeColor=#000000;strokeWidth=1;fontSize=12;fontColor=#000000;" parent="587" vertex="1">
                    <mxGeometry width="170" height="40" as="geometry">
                        <mxRectangle width="170" height="40" as="alternateBounds"/>
                    </mxGeometry>
                </mxCell>
                <mxCell id="589" style="shape=tableRow;horizontal=0;startSize=0;swimlaneHead=0;swimlaneBody=0;top=0;left=0;bottom=0;right=0;collapsible=0;dropTarget=0;fillColor=none;points=[[0,0.5],[1,0.5]];portConstraint=eastwest;rounded=0;shadow=0;labelBackgroundColor=#FFFFFF;sketch=0;strokeColor=#000000;strokeWidth=1;fontSize=12;fontColor=#000000;" parent="576" vertex="1">
                    <mxGeometry y="240" width="170" height="40" as="geometry"/>
                </mxCell>
                <mxCell id="590" value="Carrier Out" style="shape=partialRectangle;html=1;whiteSpace=wrap;connectable=0;overflow=hidden;fillColor=none;top=0;left=0;bottom=0;right=0;pointerEvents=1;rounded=0;shadow=0;labelBackgroundColor=#FFFFFF;sketch=0;strokeColor=#000000;strokeWidth=1;fontSize=12;fontColor=#000000;" parent="589" vertex="1">
                    <mxGeometry width="170" height="40" as="geometry">
                        <mxRectangle width="170" height="40" as="alternateBounds"/>
                    </mxGeometry>
                </mxCell>
                <mxCell id="591" style="shape=tableRow;horizontal=0;startSize=0;swimlaneHead=0;swimlaneBody=0;top=0;left=0;bottom=0;right=0;collapsible=0;dropTarget=0;fillColor=none;points=[[0,0.5],[1,0.5]];portConstraint=eastwest;rounded=0;shadow=0;labelBackgroundColor=#FFFFFF;sketch=0;strokeColor=#000000;strokeWidth=1;fontSize=12;fontColor=#000000;" parent="576" vertex="1">
                    <mxGeometry y="280" width="170" height="40" as="geometry"/>
                </mxCell>
                <mxCell id="592" value="Color?" style="shape=partialRectangle;html=1;whiteSpace=wrap;connectable=0;overflow=hidden;fillColor=none;top=0;left=0;bottom=0;right=0;pointerEvents=1;rounded=0;shadow=0;labelBackgroundColor=#FFFFFF;sketch=0;strokeColor=#000000;strokeWidth=1;fontSize=12;fontColor=#000000;" parent="591" vertex="1">
                    <mxGeometry width="170" height="40" as="geometry">
                        <mxRectangle width="170" height="40" as="alternateBounds"/>
                    </mxGeometry>
                </mxCell>
                <mxCell id="593" value="" style="edgeStyle=orthogonalEdgeStyle;html=1;strokeColor=#2b6fc7;fontSize=12;fontColor=#000000;entryX=0;entryY=0.5;entryDx=0;entryDy=0;exitX=1;exitY=0.5;exitDx=0;exitDy=0;" parent="532" source="536" target="581" edge="1">
                    <mxGeometry relative="1" as="geometry">
                        <mxPoint x="530" y="90" as="sourcePoint"/>
                        <mxPoint x="630.0000000000002" y="460" as="targetPoint"/>
                        <Array as="points">
                            <mxPoint x="550" y="85"/>
                            <mxPoint x="550" y="780"/>
                        </Array>
                    </mxGeometry>
                </mxCell>
                <mxCell id="594" value="" style="shape=table;startSize=0;container=1;collapsible=0;childLayout=tableLayout;rounded=0;shadow=0;labelBackgroundColor=#FFFFFF;sketch=0;strokeWidth=1;fontSize=12;fillColor=#f9f7ed;strokeColor=#36393d;" parent="532" vertex="1">
                    <mxGeometry x="310" y="480" width="170" height="200" as="geometry"/>
                </mxCell>
                <mxCell id="595" value="" style="shape=tableRow;horizontal=0;startSize=0;swimlaneHead=0;swimlaneBody=0;top=0;left=0;bottom=0;right=0;collapsible=0;dropTarget=0;fillColor=none;points=[[0,0.5],[1,0.5]];portConstraint=eastwest;rounded=0;shadow=0;labelBackgroundColor=#FFFFFF;sketch=0;strokeColor=#000000;strokeWidth=1;fontSize=12;fontColor=#000000;" parent="594" vertex="1">
                    <mxGeometry width="170" height="40" as="geometry"/>
                </mxCell>
                <mxCell id="596" value="[ADMIN] Template Loc Techs Structure" style="shape=partialRectangle;html=1;whiteSpace=wrap;connectable=0;overflow=hidden;fillColor=none;top=0;left=0;bottom=0;right=0;pointerEvents=1;rounded=0;shadow=0;labelBackgroundColor=#FFFFFF;sketch=0;strokeColor=#000000;strokeWidth=1;fontSize=12;fontColor=#000000;" parent="595" vertex="1">
                    <mxGeometry width="170" height="40" as="geometry">
                        <mxRectangle width="170" height="40" as="alternateBounds"/>
                    </mxGeometry>
                </mxCell>
                <mxCell id="597" value="" style="shape=tableRow;horizontal=0;startSize=0;swimlaneHead=0;swimlaneBody=0;top=0;left=0;bottom=0;right=0;collapsible=0;dropTarget=0;fillColor=none;points=[[0,0.5],[1,0.5]];portConstraint=eastwest;rounded=0;shadow=0;labelBackgroundColor=#FFFFFF;sketch=0;strokeColor=#000000;strokeWidth=1;fontSize=12;fontColor=#000000;" parent="594" vertex="1">
                    <mxGeometry y="40" width="170" height="40" as="geometry"/>
                </mxCell>
                <mxCell id="598" value="Template Loc Techs Structure UUID" style="shape=partialRectangle;html=1;whiteSpace=wrap;connectable=0;overflow=hidden;fillColor=none;top=0;left=0;bottom=0;right=0;pointerEvents=1;rounded=0;shadow=0;labelBackgroundColor=#FFFFFF;sketch=0;strokeColor=#000000;strokeWidth=1;fontSize=12;fontColor=#000000;" parent="597" vertex="1">
                    <mxGeometry width="170" height="40" as="geometry">
                        <mxRectangle width="170" height="40" as="alternateBounds"/>
                    </mxGeometry>
                </mxCell>
                <mxCell id="599" value="" style="shape=tableRow;horizontal=0;startSize=0;swimlaneHead=0;swimlaneBody=0;top=0;left=0;bottom=0;right=0;collapsible=0;dropTarget=0;fillColor=none;points=[[0,0.5],[1,0.5]];portConstraint=eastwest;rounded=0;shadow=0;labelBackgroundColor=#FFFFFF;sketch=0;strokeColor=#000000;strokeWidth=1;fontSize=12;fontColor=#000000;" parent="594" vertex="1">
                    <mxGeometry y="80" width="170" height="40" as="geometry"/>
                </mxCell>
                <mxCell id="600" value="Template UUID" style="shape=partialRectangle;html=1;whiteSpace=wrap;connectable=0;overflow=hidden;fillColor=none;top=0;left=0;bottom=0;right=0;pointerEvents=1;rounded=0;shadow=0;labelBackgroundColor=#FFFFFF;sketch=0;strokeColor=#000000;strokeWidth=1;fontSize=12;fontColor=#000000;" parent="599" vertex="1">
                    <mxGeometry width="170" height="40" as="geometry">
                        <mxRectangle width="170" height="40" as="alternateBounds"/>
                    </mxGeometry>
                </mxCell>
                <mxCell id="601" value="" style="shape=tableRow;horizontal=0;startSize=0;swimlaneHead=0;swimlaneBody=0;top=0;left=0;bottom=0;right=0;collapsible=0;dropTarget=0;fillColor=none;points=[[0,0.5],[1,0.5]];portConstraint=eastwest;rounded=0;shadow=0;labelBackgroundColor=#FFFFFF;sketch=0;strokeColor=#000000;strokeWidth=1;fontSize=12;fontColor=#000000;" parent="594" vertex="1">
                    <mxGeometry y="120" width="170" height="40" as="geometry"/>
                </mxCell>
                <mxCell id="602" value="Template Locs Structure UUID" style="shape=partialRectangle;html=1;whiteSpace=wrap;connectable=0;overflow=hidden;fillColor=none;top=0;left=0;bottom=0;right=0;pointerEvents=1;rounded=0;shadow=0;labelBackgroundColor=#FFFFFF;sketch=0;strokeColor=#000000;strokeWidth=1;fontSize=12;fontColor=#000000;" parent="601" vertex="1">
                    <mxGeometry width="170" height="40" as="geometry">
                        <mxRectangle width="170" height="40" as="alternateBounds"/>
                    </mxGeometry>
                </mxCell>
                <mxCell id="603" value="" style="shape=tableRow;horizontal=0;startSize=0;swimlaneHead=0;swimlaneBody=0;top=0;left=0;bottom=0;right=0;collapsible=0;dropTarget=0;fillColor=none;points=[[0,0.5],[1,0.5]];portConstraint=eastwest;rounded=0;shadow=0;labelBackgroundColor=#FFFFFF;sketch=0;strokeColor=#000000;strokeWidth=1;fontSize=12;fontColor=#000000;" parent="594" vertex="1">
                    <mxGeometry y="160" width="170" height="40" as="geometry"/>
                </mxCell>
                <mxCell id="604" value="Template Techs Structure UUID" style="shape=partialRectangle;html=1;whiteSpace=wrap;connectable=0;overflow=hidden;fillColor=none;top=0;left=0;bottom=0;right=0;pointerEvents=1;rounded=0;shadow=0;labelBackgroundColor=#FFFFFF;sketch=0;strokeColor=#000000;strokeWidth=1;fontSize=12;fontColor=#000000;" parent="603" vertex="1">
                    <mxGeometry width="170" height="40" as="geometry">
                        <mxRectangle width="170" height="40" as="alternateBounds"/>
                    </mxGeometry>
                </mxCell>
                <mxCell id="605" value="" style="edgeStyle=orthogonalEdgeStyle;html=1;strokeColor=#2b6fc7;fontSize=12;fontColor=#000000;entryX=1;entryY=0.5;entryDx=0;entryDy=0;exitX=1;exitY=0.5;exitDx=0;exitDy=0;" parent="532" source="536" target="599" edge="1">
                    <mxGeometry relative="1" as="geometry">
                        <mxPoint x="530" y="90" as="sourcePoint"/>
                        <mxPoint x="630.0000000000002" y="789.9999999999998" as="targetPoint"/>
                        <Array as="points">
                            <mxPoint x="540" y="85"/>
                            <mxPoint x="540" y="580"/>
                        </Array>
                    </mxGeometry>
                </mxCell>
                <mxCell id="606" value="" style="edgeStyle=orthogonalEdgeStyle;html=1;strokeColor=#2b6fc7;fontSize=12;fontColor=#000000;" parent="532" source="603" edge="1">
                    <mxGeometry relative="1" as="geometry">
                        <mxPoint x="540.0000000000002" y="99.99999999999989" as="sourcePoint"/>
                        <mxPoint x="620" y="780" as="targetPoint"/>
                        <Array as="points">
                            <mxPoint x="500" y="660"/>
                            <mxPoint x="500" y="780"/>
                            <mxPoint x="620" y="780"/>
                        </Array>
                    </mxGeometry>
                </mxCell>
                <mxCell id="607" value="" style="edgeStyle=orthogonalEdgeStyle;html=1;strokeColor=#2b6fc7;fontSize=12;fontColor=#000000;entryX=0;entryY=0.5;entryDx=0;entryDy=0;" parent="532" target="563" edge="1">
                    <mxGeometry relative="1" as="geometry">
                        <mxPoint x="480" y="620" as="sourcePoint"/>
                        <mxPoint x="620" y="740" as="targetPoint"/>
                        <Array as="points">
                            <mxPoint x="500" y="620"/>
                            <mxPoint x="500" y="410"/>
                        </Array>
                    </mxGeometry>
                </mxCell>
                <mxCell id="608" value="" style="shape=table;startSize=0;container=1;collapsible=0;childLayout=tableLayout;rounded=0;shadow=0;labelBackgroundColor=#FFFFFF;sketch=0;strokeWidth=1;fontSize=12;fillColor=#f9f7ed;strokeColor=#36393d;" parent="532" vertex="1">
                    <mxGeometry x="310" y="730" width="170" height="200" as="geometry"/>
                </mxCell>
                <mxCell id="609" value="" style="shape=tableRow;horizontal=0;startSize=0;swimlaneHead=0;swimlaneBody=0;top=0;left=0;bottom=0;right=0;collapsible=0;dropTarget=0;fillColor=none;points=[[0,0.5],[1,0.5]];portConstraint=eastwest;rounded=0;shadow=0;labelBackgroundColor=#FFFFFF;sketch=0;strokeColor=#000000;strokeWidth=1;fontSize=12;fontColor=#000000;" parent="608" vertex="1">
                    <mxGeometry width="170" height="40" as="geometry"/>
                </mxCell>
                <mxCell id="610" value="[ADMIN] Template Params" style="shape=partialRectangle;html=1;whiteSpace=wrap;connectable=0;overflow=hidden;fillColor=none;top=0;left=0;bottom=0;right=0;pointerEvents=1;rounded=0;shadow=0;labelBackgroundColor=#FFFFFF;sketch=0;strokeColor=#000000;strokeWidth=1;fontSize=12;fontColor=#000000;" parent="609" vertex="1">
                    <mxGeometry width="170" height="40" as="geometry">
                        <mxRectangle width="170" height="40" as="alternateBounds"/>
                    </mxGeometry>
                </mxCell>
                <mxCell id="611" value="" style="shape=tableRow;horizontal=0;startSize=0;swimlaneHead=0;swimlaneBody=0;top=0;left=0;bottom=0;right=0;collapsible=0;dropTarget=0;fillColor=none;points=[[0,0.5],[1,0.5]];portConstraint=eastwest;rounded=0;shadow=0;labelBackgroundColor=#FFFFFF;sketch=0;strokeColor=#000000;strokeWidth=1;fontSize=12;fontColor=#000000;" parent="608" vertex="1">
                    <mxGeometry y="40" width="170" height="40" as="geometry"/>
                </mxCell>
                <mxCell id="612" value="Template Params UUID" style="shape=partialRectangle;html=1;whiteSpace=wrap;connectable=0;overflow=hidden;fillColor=none;top=0;left=0;bottom=0;right=0;pointerEvents=1;rounded=0;shadow=0;labelBackgroundColor=#FFFFFF;sketch=0;strokeColor=#000000;strokeWidth=1;fontSize=12;fontColor=#000000;" parent="611" vertex="1">
                    <mxGeometry width="170" height="40" as="geometry">
                        <mxRectangle width="170" height="40" as="alternateBounds"/>
                    </mxGeometry>
                </mxCell>
                <mxCell id="613" value="" style="shape=tableRow;horizontal=0;startSize=0;swimlaneHead=0;swimlaneBody=0;top=0;left=0;bottom=0;right=0;collapsible=0;dropTarget=0;fillColor=none;points=[[0,0.5],[1,0.5]];portConstraint=eastwest;rounded=0;shadow=0;labelBackgroundColor=#FFFFFF;sketch=0;strokeColor=#000000;strokeWidth=1;fontSize=12;fontColor=#000000;" parent="608" vertex="1">
                    <mxGeometry y="80" width="170" height="40" as="geometry"/>
                </mxCell>
                <mxCell id="614" value="Template Loc Techs Structure UUID" style="shape=partialRectangle;html=1;whiteSpace=wrap;connectable=0;overflow=hidden;fillColor=none;top=0;left=0;bottom=0;right=0;pointerEvents=1;rounded=0;shadow=0;labelBackgroundColor=#FFFFFF;sketch=0;strokeColor=#000000;strokeWidth=1;fontSize=12;fontColor=#000000;" parent="613" vertex="1">
                    <mxGeometry width="170" height="40" as="geometry">
                        <mxRectangle width="170" height="40" as="alternateBounds"/>
                    </mxGeometry>
                </mxCell>
                <mxCell id="615" value="" style="shape=tableRow;horizontal=0;startSize=0;swimlaneHead=0;swimlaneBody=0;top=0;left=0;bottom=0;right=0;collapsible=0;dropTarget=0;fillColor=none;points=[[0,0.5],[1,0.5]];portConstraint=eastwest;rounded=0;shadow=0;labelBackgroundColor=#FFFFFF;sketch=0;strokeColor=#000000;strokeWidth=1;fontSize=12;fontColor=#000000;" parent="608" vertex="1">
                    <mxGeometry y="120" width="170" height="40" as="geometry"/>
                </mxCell>
                <mxCell id="616" value="[ADMIN] Parameters UUID" style="shape=partialRectangle;html=1;whiteSpace=wrap;connectable=0;overflow=hidden;fillColor=none;top=0;left=0;bottom=0;right=0;pointerEvents=1;rounded=0;shadow=0;labelBackgroundColor=#FFFFFF;sketch=0;strokeColor=#000000;strokeWidth=1;fontSize=12;fontColor=#000000;" parent="615" vertex="1">
                    <mxGeometry width="170" height="40" as="geometry">
                        <mxRectangle width="170" height="40" as="alternateBounds"/>
                    </mxGeometry>
                </mxCell>
                <mxCell id="617" value="" style="shape=tableRow;horizontal=0;startSize=0;swimlaneHead=0;swimlaneBody=0;top=0;left=0;bottom=0;right=0;collapsible=0;dropTarget=0;fillColor=none;points=[[0,0.5],[1,0.5]];portConstraint=eastwest;rounded=0;shadow=0;labelBackgroundColor=#FFFFFF;sketch=0;strokeColor=#000000;strokeWidth=1;fontSize=12;fontColor=#000000;" parent="608" vertex="1">
                    <mxGeometry y="160" width="170" height="40" as="geometry"/>
                </mxCell>
                <mxCell id="618" value="Equation" style="shape=partialRectangle;html=1;whiteSpace=wrap;connectable=0;overflow=hidden;fillColor=none;top=0;left=0;bottom=0;right=0;pointerEvents=1;rounded=0;shadow=0;labelBackgroundColor=#FFFFFF;sketch=0;strokeColor=#000000;strokeWidth=1;fontSize=12;fontColor=#000000;" parent="617" vertex="1">
                    <mxGeometry width="170" height="40" as="geometry">
                        <mxRectangle width="170" height="40" as="alternateBounds"/>
                    </mxGeometry>
                </mxCell>
                <mxCell id="619" value="" style="edgeStyle=orthogonalEdgeStyle;html=1;strokeColor=#2b6fc7;fontSize=12;fontColor=#000000;entryX=0;entryY=0.5;entryDx=0;entryDy=0;exitX=1;exitY=0.5;exitDx=0;exitDy=0;" parent="532" source="625" target="536" edge="1">
                    <mxGeometry relative="1" as="geometry">
                        <mxPoint x="240" y="580" as="sourcePoint"/>
                        <mxPoint x="310" y="330" as="targetPoint"/>
                        <Array as="points">
                            <mxPoint x="300" y="280"/>
                            <mxPoint x="300" y="85"/>
                        </Array>
                    </mxGeometry>
                </mxCell>
                <mxCell id="620" value="" style="shape=table;startSize=0;container=1;collapsible=0;childLayout=tableLayout;rounded=0;shadow=0;labelBackgroundColor=#FFFFFF;sketch=0;strokeWidth=1;fontSize=12;fillColor=#f9f7ed;strokeColor=#36393d;" parent="532" vertex="1">
                    <mxGeometry x="60" y="180" width="170" height="200" as="geometry"/>
                </mxCell>
                <mxCell id="621" value="" style="shape=tableRow;horizontal=0;startSize=0;swimlaneHead=0;swimlaneBody=0;top=0;left=0;bottom=0;right=0;collapsible=0;dropTarget=0;fillColor=none;points=[[0,0.5],[1,0.5]];portConstraint=eastwest;rounded=0;shadow=0;labelBackgroundColor=#FFFFFF;sketch=0;strokeColor=#000000;strokeWidth=1;fontSize=12;fontColor=#000000;" parent="620" vertex="1">
                    <mxGeometry width="170" height="40" as="geometry"/>
                </mxCell>
                <mxCell id="622" value="Template Loc Techs" style="shape=partialRectangle;html=1;whiteSpace=wrap;connectable=0;overflow=hidden;fillColor=none;top=0;left=0;bottom=0;right=0;pointerEvents=1;rounded=0;shadow=0;labelBackgroundColor=#FFFFFF;sketch=0;strokeColor=#000000;strokeWidth=1;fontSize=12;fontColor=#000000;" parent="621" vertex="1">
                    <mxGeometry width="170" height="40" as="geometry">
                        <mxRectangle width="170" height="40" as="alternateBounds"/>
                    </mxGeometry>
                </mxCell>
                <mxCell id="623" value="" style="shape=tableRow;horizontal=0;startSize=0;swimlaneHead=0;swimlaneBody=0;top=0;left=0;bottom=0;right=0;collapsible=0;dropTarget=0;fillColor=none;points=[[0,0.5],[1,0.5]];portConstraint=eastwest;rounded=0;shadow=0;labelBackgroundColor=#FFFFFF;sketch=0;strokeColor=#000000;strokeWidth=1;fontSize=12;fontColor=#000000;" parent="620" vertex="1">
                    <mxGeometry y="40" width="170" height="40" as="geometry"/>
                </mxCell>
                <mxCell id="624" value="Template Loc Techs UUID" style="shape=partialRectangle;html=1;whiteSpace=wrap;connectable=0;overflow=hidden;fillColor=none;top=0;left=0;bottom=0;right=0;pointerEvents=1;rounded=0;shadow=0;labelBackgroundColor=#FFFFFF;sketch=0;strokeColor=#000000;strokeWidth=1;fontSize=12;fontColor=#000000;" parent="623" vertex="1">
                    <mxGeometry width="170" height="40" as="geometry">
                        <mxRectangle width="170" height="40" as="alternateBounds"/>
                    </mxGeometry>
                </mxCell>
                <mxCell id="625" value="" style="shape=tableRow;horizontal=0;startSize=0;swimlaneHead=0;swimlaneBody=0;top=0;left=0;bottom=0;right=0;collapsible=0;dropTarget=0;fillColor=none;points=[[0,0.5],[1,0.5]];portConstraint=eastwest;rounded=0;shadow=0;labelBackgroundColor=#FFFFFF;sketch=0;strokeColor=#000000;strokeWidth=1;fontSize=12;fontColor=#000000;" parent="620" vertex="1">
                    <mxGeometry y="80" width="170" height="40" as="geometry"/>
                </mxCell>
                <mxCell id="626" value="Template UUID" style="shape=partialRectangle;html=1;whiteSpace=wrap;connectable=0;overflow=hidden;fillColor=none;top=0;left=0;bottom=0;right=0;pointerEvents=1;rounded=0;shadow=0;labelBackgroundColor=#FFFFFF;sketch=0;strokeColor=#000000;strokeWidth=1;fontSize=12;fontColor=#000000;" parent="625" vertex="1">
                    <mxGeometry width="170" height="40" as="geometry">
                        <mxRectangle width="170" height="40" as="alternateBounds"/>
                    </mxGeometry>
                </mxCell>
                <mxCell id="627" value="" style="shape=tableRow;horizontal=0;startSize=0;swimlaneHead=0;swimlaneBody=0;top=0;left=0;bottom=0;right=0;collapsible=0;dropTarget=0;fillColor=none;points=[[0,0.5],[1,0.5]];portConstraint=eastwest;rounded=0;shadow=0;labelBackgroundColor=#FFFFFF;sketch=0;strokeColor=#000000;strokeWidth=1;fontSize=12;fontColor=#000000;" parent="620" vertex="1">
                    <mxGeometry y="120" width="170" height="40" as="geometry"/>
                </mxCell>
                <mxCell id="628" value="Model UUID" style="shape=partialRectangle;html=1;whiteSpace=wrap;connectable=0;overflow=hidden;fillColor=none;top=0;left=0;bottom=0;right=0;pointerEvents=1;rounded=0;shadow=0;labelBackgroundColor=#FFFFFF;sketch=0;strokeColor=#000000;strokeWidth=1;fontSize=12;fontColor=#000000;" parent="627" vertex="1">
                    <mxGeometry width="170" height="40" as="geometry">
                        <mxRectangle width="170" height="40" as="alternateBounds"/>
                    </mxGeometry>
                </mxCell>
                <mxCell id="629" value="" style="shape=tableRow;horizontal=0;startSize=0;swimlaneHead=0;swimlaneBody=0;top=0;left=0;bottom=0;right=0;collapsible=0;dropTarget=0;fillColor=none;points=[[0,0.5],[1,0.5]];portConstraint=eastwest;rounded=0;shadow=0;labelBackgroundColor=#FFFFFF;sketch=0;strokeColor=#000000;strokeWidth=1;fontSize=12;fontColor=#000000;" parent="620" vertex="1">
                    <mxGeometry y="160" width="170" height="40" as="geometry"/>
                </mxCell>
                <mxCell id="630" value="Loc UUID" style="shape=partialRectangle;html=1;whiteSpace=wrap;connectable=0;overflow=hidden;fillColor=none;top=0;left=0;bottom=0;right=0;pointerEvents=1;rounded=0;shadow=0;labelBackgroundColor=#FFFFFF;sketch=0;strokeColor=#000000;strokeWidth=1;fontSize=12;fontColor=#000000;" parent="629" vertex="1">
                    <mxGeometry width="170" height="40" as="geometry">
                        <mxRectangle width="170" height="40" as="alternateBounds"/>
                    </mxGeometry>
                </mxCell>
                <mxCell id="631" value="" style="edgeStyle=orthogonalEdgeStyle;html=1;strokeColor=#2b6fc7;fontSize=12;fontColor=#000000;entryX=0;entryY=0.5;entryDx=0;entryDy=0;exitX=-0.008;exitY=0.494;exitDx=0;exitDy=0;exitPerimeter=0;" parent="532" edge="1">
                    <mxGeometry relative="1" as="geometry">
                        <mxPoint x="308.6399999999999" y="839.76" as="sourcePoint"/>
                        <mxPoint x="310" y="550" as="targetPoint"/>
                        <Array as="points">
                            <mxPoint x="270" y="840"/>
                            <mxPoint x="270" y="550"/>
                        </Array>
                    </mxGeometry>
                </mxCell>
                <mxCell id="632" value="" style="shape=table;startSize=0;container=1;collapsible=0;childLayout=tableLayout;rounded=0;shadow=0;labelBackgroundColor=#FFFFFF;sketch=0;strokeWidth=1;fontSize=12;fillColor=#f9f7ed;strokeColor=#36393d;" parent="532" vertex="1">
                    <mxGeometry x="60" y="490" width="170" height="200" as="geometry"/>
                </mxCell>
                <mxCell id="633" value="" style="shape=tableRow;horizontal=0;startSize=0;swimlaneHead=0;swimlaneBody=0;top=0;left=0;bottom=0;right=0;collapsible=0;dropTarget=0;fillColor=none;points=[[0,0.5],[1,0.5]];portConstraint=eastwest;rounded=0;shadow=0;labelBackgroundColor=#FFFFFF;sketch=0;strokeColor=#000000;strokeWidth=1;fontSize=12;fontColor=#000000;" parent="632" vertex="1">
                    <mxGeometry width="170" height="40" as="geometry"/>
                </mxCell>
                <mxCell id="634" value="Template Loc Techs Params" style="shape=partialRectangle;html=1;whiteSpace=wrap;connectable=0;overflow=hidden;fillColor=none;top=0;left=0;bottom=0;right=0;pointerEvents=1;rounded=0;shadow=0;labelBackgroundColor=#FFFFFF;sketch=0;strokeColor=#000000;strokeWidth=1;fontSize=12;fontColor=#000000;" parent="633" vertex="1">
                    <mxGeometry width="170" height="40" as="geometry">
                        <mxRectangle width="170" height="40" as="alternateBounds"/>
                    </mxGeometry>
                </mxCell>
                <mxCell id="635" value="" style="shape=tableRow;horizontal=0;startSize=0;swimlaneHead=0;swimlaneBody=0;top=0;left=0;bottom=0;right=0;collapsible=0;dropTarget=0;fillColor=none;points=[[0,0.5],[1,0.5]];portConstraint=eastwest;rounded=0;shadow=0;labelBackgroundColor=#FFFFFF;sketch=0;strokeColor=#000000;strokeWidth=1;fontSize=12;fontColor=#000000;" parent="632" vertex="1">
                    <mxGeometry y="40" width="170" height="40" as="geometry"/>
                </mxCell>
                <mxCell id="636" value="Template Loc Techs Params UUID" style="shape=partialRectangle;html=1;whiteSpace=wrap;connectable=0;overflow=hidden;fillColor=none;top=0;left=0;bottom=0;right=0;pointerEvents=1;rounded=0;shadow=0;labelBackgroundColor=#FFFFFF;sketch=0;strokeColor=#000000;strokeWidth=1;fontSize=12;fontColor=#000000;" parent="635" vertex="1">
                    <mxGeometry width="170" height="40" as="geometry">
                        <mxRectangle width="170" height="40" as="alternateBounds"/>
                    </mxGeometry>
                </mxCell>
                <mxCell id="637" value="" style="shape=tableRow;horizontal=0;startSize=0;swimlaneHead=0;swimlaneBody=0;top=0;left=0;bottom=0;right=0;collapsible=0;dropTarget=0;fillColor=none;points=[[0,0.5],[1,0.5]];portConstraint=eastwest;rounded=0;shadow=0;labelBackgroundColor=#FFFFFF;sketch=0;strokeColor=#000000;strokeWidth=1;fontSize=12;fontColor=#000000;" parent="632" vertex="1">
                    <mxGeometry y="80" width="170" height="40" as="geometry"/>
                </mxCell>
                <mxCell id="638" value="Template Loc Techs Structure UUID" style="shape=partialRectangle;html=1;whiteSpace=wrap;connectable=0;overflow=hidden;fillColor=none;top=0;left=0;bottom=0;right=0;pointerEvents=1;rounded=0;shadow=0;labelBackgroundColor=#FFFFFF;sketch=0;strokeColor=#000000;strokeWidth=1;fontSize=12;fontColor=#000000;" parent="637" vertex="1">
                    <mxGeometry width="170" height="40" as="geometry">
                        <mxRectangle width="170" height="40" as="alternateBounds"/>
                    </mxGeometry>
                </mxCell>
                <mxCell id="639" value="" style="shape=tableRow;horizontal=0;startSize=0;swimlaneHead=0;swimlaneBody=0;top=0;left=0;bottom=0;right=0;collapsible=0;dropTarget=0;fillColor=none;points=[[0,0.5],[1,0.5]];portConstraint=eastwest;rounded=0;shadow=0;labelBackgroundColor=#FFFFFF;sketch=0;strokeColor=#000000;strokeWidth=1;fontSize=12;fontColor=#000000;" parent="632" vertex="1">
                    <mxGeometry y="120" width="170" height="40" as="geometry"/>
                </mxCell>
                <mxCell id="640" value="Template Options Params UUID" style="shape=partialRectangle;html=1;whiteSpace=wrap;connectable=0;overflow=hidden;fillColor=none;top=0;left=0;bottom=0;right=0;pointerEvents=1;rounded=0;shadow=0;labelBackgroundColor=#FFFFFF;sketch=0;strokeColor=#000000;strokeWidth=1;fontSize=12;fontColor=#000000;" parent="639" vertex="1">
                    <mxGeometry width="170" height="40" as="geometry">
                        <mxRectangle width="170" height="40" as="alternateBounds"/>
                    </mxGeometry>
                </mxCell>
                <mxCell id="641" value="" style="shape=tableRow;horizontal=0;startSize=0;swimlaneHead=0;swimlaneBody=0;top=0;left=0;bottom=0;right=0;collapsible=0;dropTarget=0;fillColor=none;points=[[0,0.5],[1,0.5]];portConstraint=eastwest;rounded=0;shadow=0;labelBackgroundColor=#FFFFFF;sketch=0;strokeColor=#000000;strokeWidth=1;fontSize=12;fontColor=#000000;" parent="632" vertex="1">
                    <mxGeometry y="160" width="170" height="40" as="geometry"/>
                </mxCell>
                <mxCell id="642" value="Value" style="shape=partialRectangle;html=1;whiteSpace=wrap;connectable=0;overflow=hidden;fillColor=none;top=0;left=0;bottom=0;right=0;pointerEvents=1;rounded=0;shadow=0;labelBackgroundColor=#FFFFFF;sketch=0;strokeColor=#000000;strokeWidth=1;fontSize=12;fontColor=#000000;" parent="641" vertex="1">
                    <mxGeometry width="170" height="40" as="geometry">
                        <mxRectangle width="170" height="40" as="alternateBounds"/>
                    </mxGeometry>
                </mxCell>
                <mxCell id="643" value="" style="edgeStyle=orthogonalEdgeStyle;html=1;strokeColor=#2b6fc7;fontSize=12;fontColor=#000000;" parent="532" edge="1">
                    <mxGeometry relative="1" as="geometry">
                        <mxPoint x="230" y="595" as="sourcePoint"/>
                        <mxPoint x="310" y="550" as="targetPoint"/>
                        <Array as="points">
                            <mxPoint x="260" y="595"/>
                            <mxPoint x="260" y="550"/>
                        </Array>
                    </mxGeometry>
                </mxCell>
                <mxCell id="644" value="" style="edgeStyle=orthogonalEdgeStyle;html=1;strokeColor=#2b6fc7;fontSize=12;fontColor=#000000;exitX=1;exitY=0.5;exitDx=0;exitDy=0;entryX=0;entryY=0.5;entryDx=0;entryDy=0;" parent="532" source="639" target="547" edge="1">
                    <mxGeometry relative="1" as="geometry">
                        <mxPoint x="240" y="605" as="sourcePoint"/>
                        <mxPoint x="590" y="300" as="targetPoint"/>
                        <Array as="points">
                            <mxPoint x="250" y="630"/>
                            <mxPoint x="250" y="330"/>
                            <mxPoint x="590" y="330"/>
                            <mxPoint x="590" y="85"/>
                        </Array>
                    </mxGeometry>
                </mxCell>
                <mxCell id="645" value="" style="shape=table;startSize=0;container=1;collapsible=0;childLayout=tableLayout;rounded=0;shadow=0;labelBackgroundColor=#FFFFFF;sketch=0;strokeWidth=1;fontSize=12;fillColor=#f9f7ed;strokeColor=#36393d;" parent="532" vertex="1">
                    <mxGeometry x="-210" y="180" width="170" height="80" as="geometry"/>
                </mxCell>
                <mxCell id="646" value="" style="shape=tableRow;horizontal=0;startSize=0;swimlaneHead=0;swimlaneBody=0;top=0;left=0;bottom=0;right=0;collapsible=0;dropTarget=0;fillColor=none;points=[[0,0.5],[1,0.5]];portConstraint=eastwest;rounded=0;shadow=0;labelBackgroundColor=#FFFFFF;sketch=0;strokeColor=#000000;strokeWidth=1;fontSize=12;fontColor=#000000;" parent="645" vertex="1">
                    <mxGeometry width="170" height="40" as="geometry"/>
                </mxCell>
                <mxCell id="647" value="Location Technologies" style="shape=partialRectangle;html=1;whiteSpace=wrap;connectable=0;overflow=hidden;fillColor=none;top=0;left=0;bottom=0;right=0;pointerEvents=1;rounded=0;shadow=0;labelBackgroundColor=#FFFFFF;sketch=0;strokeColor=#000000;strokeWidth=1;fontSize=12;fontColor=#000000;" parent="646" vertex="1">
                    <mxGeometry width="170" height="40" as="geometry">
                        <mxRectangle width="170" height="40" as="alternateBounds"/>
                    </mxGeometry>
                </mxCell>
                <mxCell id="648" value="" style="shape=tableRow;horizontal=0;startSize=0;swimlaneHead=0;swimlaneBody=0;top=0;left=0;bottom=0;right=0;collapsible=0;dropTarget=0;fillColor=none;points=[[0,0.5],[1,0.5]];portConstraint=eastwest;rounded=0;shadow=0;labelBackgroundColor=#FFFFFF;sketch=0;strokeColor=#000000;strokeWidth=1;fontSize=12;fontColor=#000000;" parent="645" vertex="1">
                    <mxGeometry y="40" width="170" height="40" as="geometry"/>
                </mxCell>
                <mxCell id="649" value="Template Loc Techs UUID" style="shape=partialRectangle;html=1;whiteSpace=wrap;connectable=0;overflow=hidden;fillColor=none;top=0;left=0;bottom=0;right=0;pointerEvents=1;rounded=0;shadow=0;labelBackgroundColor=#FFFFFF;sketch=0;strokeColor=#000000;strokeWidth=1;fontSize=12;fontColor=#000000;" parent="648" vertex="1">
                    <mxGeometry width="170" height="40" as="geometry">
                        <mxRectangle width="170" height="40" as="alternateBounds"/>
                    </mxGeometry>
                </mxCell>
                <mxCell id="650" value="" style="shape=table;startSize=0;container=1;collapsible=0;childLayout=tableLayout;rounded=0;shadow=0;labelBackgroundColor=#FFFFFF;sketch=0;strokeWidth=1;fontSize=12;fillColor=#f9f7ed;strokeColor=#36393d;" parent="532" vertex="1">
                    <mxGeometry x="-210" y="290" width="170" height="80" as="geometry"/>
                </mxCell>
                <mxCell id="651" value="" style="shape=tableRow;horizontal=0;startSize=0;swimlaneHead=0;swimlaneBody=0;top=0;left=0;bottom=0;right=0;collapsible=0;dropTarget=0;fillColor=none;points=[[0,0.5],[1,0.5]];portConstraint=eastwest;rounded=0;shadow=0;labelBackgroundColor=#FFFFFF;sketch=0;strokeColor=#000000;strokeWidth=1;fontSize=12;fontColor=#000000;" parent="650" vertex="1">
                    <mxGeometry width="170" height="40" as="geometry"/>
                </mxCell>
                <mxCell id="652" value="Locations" style="shape=partialRectangle;html=1;whiteSpace=wrap;connectable=0;overflow=hidden;fillColor=none;top=0;left=0;bottom=0;right=0;pointerEvents=1;rounded=0;shadow=0;labelBackgroundColor=#FFFFFF;sketch=0;strokeColor=#000000;strokeWidth=1;fontSize=12;fontColor=#000000;" parent="651" vertex="1">
                    <mxGeometry width="170" height="40" as="geometry">
                        <mxRectangle width="170" height="40" as="alternateBounds"/>
                    </mxGeometry>
                </mxCell>
                <mxCell id="653" value="" style="shape=tableRow;horizontal=0;startSize=0;swimlaneHead=0;swimlaneBody=0;top=0;left=0;bottom=0;right=0;collapsible=0;dropTarget=0;fillColor=none;points=[[0,0.5],[1,0.5]];portConstraint=eastwest;rounded=0;shadow=0;labelBackgroundColor=#FFFFFF;sketch=0;strokeColor=#000000;strokeWidth=1;fontSize=12;fontColor=#000000;" parent="650" vertex="1">
                    <mxGeometry y="40" width="170" height="40" as="geometry"/>
                </mxCell>
                <mxCell id="654" value="Template Loc Techs UUID" style="shape=partialRectangle;html=1;whiteSpace=wrap;connectable=0;overflow=hidden;fillColor=none;top=0;left=0;bottom=0;right=0;pointerEvents=1;rounded=0;shadow=0;labelBackgroundColor=#FFFFFF;sketch=0;strokeColor=#000000;strokeWidth=1;fontSize=12;fontColor=#000000;" parent="653" vertex="1">
                    <mxGeometry width="170" height="40" as="geometry">
                        <mxRectangle width="170" height="40" as="alternateBounds"/>
                    </mxGeometry>
                </mxCell>
                <mxCell id="655" value="" style="edgeStyle=orthogonalEdgeStyle;html=1;strokeColor=#2b6fc7;fontSize=12;fontColor=#000000;entryX=0;entryY=0.5;entryDx=0;entryDy=0;" parent="532" target="623" edge="1">
                    <mxGeometry relative="1" as="geometry">
                        <mxPoint x="-40" y="349.94" as="sourcePoint"/>
                        <mxPoint x="40" y="304.94" as="targetPoint"/>
                        <Array as="points">
                            <mxPoint x="-10" y="350"/>
                            <mxPoint x="-10" y="240"/>
                        </Array>
                    </mxGeometry>
                </mxCell>
                <mxCell id="656" value="" style="edgeStyle=orthogonalEdgeStyle;html=1;strokeColor=#2b6fc7;fontSize=12;fontColor=#000000;exitX=1.02;exitY=0.315;exitDx=0;exitDy=0;exitPerimeter=0;" parent="532" source="648" edge="1">
                    <mxGeometry relative="1" as="geometry">
                        <mxPoint x="-30.000000000000227" y="359.94000000000005" as="sourcePoint"/>
                        <mxPoint x="60" y="240" as="targetPoint"/>
                        <Array as="points">
                            <mxPoint x="-37" y="230"/>
                            <mxPoint y="230"/>
                            <mxPoint y="240"/>
                        </Array>
                    </mxGeometry>
                </mxCell>
                <mxCell id="657" value="" style="shape=table;startSize=0;container=1;collapsible=0;childLayout=tableLayout;rounded=0;shadow=1;labelBackgroundColor=#FFFFFF;sketch=0;strokeWidth=1;fontSize=12;fillColor=#f9f7ed;strokeColor=#36393d;" parent="532" vertex="1">
                    <mxGeometry x="-210" y="25" width="170" height="85" as="geometry"/>
                </mxCell>
                <mxCell id="658" value="" style="shape=tableRow;horizontal=0;startSize=0;swimlaneHead=0;swimlaneBody=0;top=0;left=0;bottom=0;right=0;collapsible=0;dropTarget=0;fillColor=none;points=[[0,0.5],[1,0.5]];portConstraint=eastwest;rounded=0;shadow=0;labelBackgroundColor=#FFFFFF;sketch=0;strokeColor=#000000;strokeWidth=1;fontSize=12;fontColor=#000000;" parent="657" vertex="1">
                    <mxGeometry width="170" height="45" as="geometry"/>
                </mxCell>
                <mxCell id="659" value="Technologies" style="shape=partialRectangle;html=1;whiteSpace=wrap;connectable=0;overflow=hidden;fillColor=none;top=0;left=0;bottom=0;right=0;pointerEvents=1;rounded=0;shadow=0;labelBackgroundColor=#FFFFFF;sketch=0;strokeColor=#000000;strokeWidth=1;fontSize=12;fontColor=#000000;" parent="658" vertex="1">
                    <mxGeometry width="170" height="45" as="geometry">
                        <mxRectangle width="170" height="45" as="alternateBounds"/>
                    </mxGeometry>
                </mxCell>
                <mxCell id="660" value="" style="shape=tableRow;horizontal=0;startSize=0;swimlaneHead=0;swimlaneBody=0;top=0;left=0;bottom=0;right=0;collapsible=0;dropTarget=0;fillColor=none;points=[[0,0.5],[1,0.5]];portConstraint=eastwest;rounded=0;shadow=0;labelBackgroundColor=#FFFFFF;sketch=0;strokeColor=#000000;strokeWidth=1;fontSize=12;fontColor=#000000;" parent="657" vertex="1">
                    <mxGeometry y="45" width="170" height="40" as="geometry"/>
                </mxCell>
                <mxCell id="661" value="Template UUID" style="shape=partialRectangle;html=1;whiteSpace=wrap;connectable=0;overflow=hidden;fillColor=none;top=0;left=0;bottom=0;right=0;pointerEvents=1;rounded=0;shadow=0;labelBackgroundColor=#FFFFFF;sketch=0;strokeColor=#000000;strokeWidth=1;fontSize=12;fontColor=#000000;" parent="660" vertex="1">
                    <mxGeometry width="170" height="40" as="geometry">
                        <mxRectangle width="170" height="40" as="alternateBounds"/>
                    </mxGeometry>
                </mxCell>
                <mxCell id="662" value="" style="edgeStyle=orthogonalEdgeStyle;html=1;strokeColor=#2b6fc7;fontSize=12;fontColor=#000000;entryX=0;entryY=0.5;entryDx=0;entryDy=0;exitX=1;exitY=0.5;exitDx=0;exitDy=0;" parent="532" source="660" target="536" edge="1">
                    <mxGeometry relative="1" as="geometry">
                        <mxPoint x="240" y="290" as="sourcePoint"/>
                        <mxPoint x="400" y="95" as="targetPoint"/>
                        <Array as="points">
                            <mxPoint x="250" y="85"/>
                            <mxPoint x="250" y="85"/>
                        </Array>
                    </mxGeometry>
                </mxCell>
                <mxCell id="663" value="" style="whiteSpace=wrap;html=1;shadow=1;fillColor=#f5f5f5;strokeColor=#666666;gradientColor=#b3b3b3;" parent="532" vertex="1">
                    <mxGeometry x="-240" y="-90" width="240" height="1100" as="geometry"/>
                </mxCell>
                <mxCell id="665" value="" style="whiteSpace=wrap;html=1;fillColor=#d5e8d4;strokeColor=#82b366;gradientColor=#97d077;" parent="532" vertex="1">
                    <mxGeometry x="300" y="-90" width="510" height="1100" as="geometry"/>
                </mxCell>
                <mxCell id="673" value="" style="shape=table;startSize=0;container=1;collapsible=0;childLayout=tableLayout;rounded=0;shadow=0;labelBackgroundColor=#FFFFFF;sketch=0;strokeWidth=1;fontSize=12;fillColor=#f9f7ed;strokeColor=#36393d;" parent="532" vertex="1">
                    <mxGeometry x="-220" y="850" width="170" height="80" as="geometry"/>
                </mxCell>
                <mxCell id="674" value="" style="shape=tableRow;horizontal=0;startSize=0;swimlaneHead=0;swimlaneBody=0;top=0;left=0;bottom=0;right=0;collapsible=0;dropTarget=0;fillColor=none;points=[[0,0.5],[1,0.5]];portConstraint=eastwest;rounded=0;shadow=0;labelBackgroundColor=#FFFFFF;sketch=0;strokeColor=#000000;strokeWidth=1;fontSize=12;fontColor=#000000;" parent="673" vertex="1">
                    <mxGeometry width="170" height="40" as="geometry"/>
                </mxCell>
                <mxCell id="675" value="&lt;b style=&quot;border-color: rgb(0, 0, 0); color: rgb(0, 0, 0); font-family: Helvetica; font-size: 12px; font-style: normal; font-variant-ligatures: normal; font-variant-caps: normal; letter-spacing: normal; orphans: 2; text-align: center; text-indent: 0px; text-transform: none; widows: 2; word-spacing: 0px; -webkit-text-stroke-width: 0px; text-decoration-thickness: initial; text-decoration-style: initial; text-decoration-color: initial;&quot;&gt;[ADMIN] Parameters&lt;/b&gt;" style="shape=partialRectangle;html=1;whiteSpace=wrap;connectable=0;overflow=hidden;fillColor=none;top=0;left=0;bottom=0;right=0;pointerEvents=1;rounded=0;shadow=0;labelBackgroundColor=#FFFFFF;sketch=0;strokeColor=#000000;strokeWidth=1;fontSize=12;fontColor=#000000;" parent="674" vertex="1">
                    <mxGeometry width="170" height="40" as="geometry">
                        <mxRectangle width="170" height="40" as="alternateBounds"/>
                    </mxGeometry>
                </mxCell>
                <mxCell id="676" value="" style="shape=tableRow;horizontal=0;startSize=0;swimlaneHead=0;swimlaneBody=0;top=0;left=0;bottom=0;right=0;collapsible=0;dropTarget=0;fillColor=none;points=[[0,0.5],[1,0.5]];portConstraint=eastwest;rounded=0;shadow=0;labelBackgroundColor=#FFFFFF;sketch=0;strokeColor=#000000;strokeWidth=1;fontSize=12;fontColor=#000000;" parent="673" vertex="1">
                    <mxGeometry y="40" width="170" height="40" as="geometry"/>
                </mxCell>
                <mxCell id="677" value="[ADMIN] Parameters UUID" style="shape=partialRectangle;html=1;whiteSpace=wrap;connectable=0;overflow=hidden;fillColor=none;top=0;left=0;bottom=0;right=0;pointerEvents=1;rounded=0;shadow=0;labelBackgroundColor=#FFFFFF;sketch=0;strokeColor=#000000;strokeWidth=1;fontSize=12;fontColor=#000000;" parent="676" vertex="1">
                    <mxGeometry width="170" height="40" as="geometry">
                        <mxRectangle width="170" height="40" as="alternateBounds"/>
                    </mxGeometry>
                </mxCell>
                <mxCell id="678" value="" style="edgeStyle=orthogonalEdgeStyle;html=1;strokeColor=#2b6fc7;fontSize=12;fontColor=#000000;exitX=1;exitY=0.5;exitDx=0;exitDy=0;entryX=0;entryY=0.5;entryDx=0;entryDy=0;" parent="532" source="676" target="350" edge="1">
                    <mxGeometry relative="1" as="geometry">
                        <mxPoint x="-30" y="359.94000000000005" as="sourcePoint"/>
                        <mxPoint x="70" y="250" as="targetPoint"/>
                        <Array as="points"/>
                    </mxGeometry>
                </mxCell>
                <mxCell id="664" value="" style="whiteSpace=wrap;html=1;fillColor=#fff2cc;strokeColor=#d6b656;" parent="532" vertex="1">
                    <mxGeometry y="-90" width="300" height="1100" as="geometry"/>
                </mxCell>
                <mxCell id="697" style="edgeStyle=none;html=1;" edge="1" parent="532" source="668" target="665">
                    <mxGeometry relative="1" as="geometry"/>
                </mxCell>
                <mxCell id="267" value="Existing Tables (adding columns)" style="" parent="0"/>
                <mxCell id="268" value="" style="shape=table;startSize=0;container=1;collapsible=0;childLayout=tableLayout;rounded=0;shadow=0;labelBackgroundColor=#FFFFFF;sketch=0;strokeColor=#36393d;strokeWidth=1;fontSize=12;fillColor=#f9f7ed;" parent="267" vertex="1">
                    <mxGeometry x="390" y="25" width="140" height="200" as="geometry"/>
                </mxCell>
                <mxCell id="269" value="" style="shape=tableRow;horizontal=0;startSize=0;swimlaneHead=0;swimlaneBody=0;top=0;left=0;bottom=0;right=0;collapsible=0;dropTarget=0;fillColor=none;points=[[0,0.5],[1,0.5]];portConstraint=eastwest;rounded=0;shadow=0;labelBackgroundColor=#FFFFFF;sketch=0;strokeColor=#000000;strokeWidth=1;fontSize=12;fontColor=#000000;" parent="268" vertex="1">
                    <mxGeometry width="140" height="40" as="geometry"/>
                </mxCell>
                <mxCell id="270" value="&lt;b&gt;[ADMIN] Template Types&lt;/b&gt;" style="shape=partialRectangle;html=1;whiteSpace=wrap;connectable=0;overflow=hidden;fillColor=none;top=0;left=0;bottom=0;right=0;pointerEvents=1;rounded=0;shadow=0;labelBackgroundColor=#FFFFFF;sketch=0;strokeColor=#000000;strokeWidth=1;fontSize=12;fontColor=#000000;" parent="269" vertex="1">
                    <mxGeometry width="140" height="40" as="geometry">
                        <mxRectangle width="140" height="40" as="alternateBounds"/>
                    </mxGeometry>
                </mxCell>
                <mxCell id="271" value="" style="shape=tableRow;horizontal=0;startSize=0;swimlaneHead=0;swimlaneBody=0;top=0;left=0;bottom=0;right=0;collapsible=0;dropTarget=0;fillColor=none;points=[[0,0.5],[1,0.5]];portConstraint=eastwest;rounded=0;shadow=0;labelBackgroundColor=#FFFFFF;sketch=0;strokeColor=#000000;strokeWidth=1;fontSize=12;fontColor=#000000;" parent="268" vertex="1">
                    <mxGeometry y="40" width="140" height="40" as="geometry"/>
                </mxCell>
                <mxCell id="272" value="Template Types UUID" style="shape=partialRectangle;html=1;whiteSpace=wrap;connectable=0;overflow=hidden;fillColor=none;top=0;left=0;bottom=0;right=0;pointerEvents=1;rounded=0;shadow=0;labelBackgroundColor=#FFFFFF;sketch=0;strokeColor=#000000;strokeWidth=1;fontSize=12;fontColor=#000000;" parent="271" vertex="1">
                    <mxGeometry width="140" height="40" as="geometry">
                        <mxRectangle width="140" height="40" as="alternateBounds"/>
                    </mxGeometry>
                </mxCell>
                <mxCell id="273" value="" style="shape=tableRow;horizontal=0;startSize=0;swimlaneHead=0;swimlaneBody=0;top=0;left=0;bottom=0;right=0;collapsible=0;dropTarget=0;fillColor=none;points=[[0,0.5],[1,0.5]];portConstraint=eastwest;rounded=0;shadow=0;labelBackgroundColor=#FFFFFF;sketch=0;strokeColor=#000000;strokeWidth=1;fontSize=12;fontColor=#000000;" parent="268" vertex="1">
                    <mxGeometry y="80" width="140" height="40" as="geometry"/>
                </mxCell>
                <mxCell id="274" value="Template Type" style="shape=partialRectangle;html=1;whiteSpace=wrap;connectable=0;overflow=hidden;fillColor=none;top=0;left=0;bottom=0;right=0;pointerEvents=1;rounded=0;shadow=0;labelBackgroundColor=#FFFFFF;sketch=0;strokeColor=#000000;strokeWidth=1;fontSize=12;fontColor=#000000;" parent="273" vertex="1">
                    <mxGeometry width="140" height="40" as="geometry">
                        <mxRectangle width="140" height="40" as="alternateBounds"/>
                    </mxGeometry>
                </mxCell>
                <mxCell id="275" value="" style="shape=tableRow;horizontal=0;startSize=0;swimlaneHead=0;swimlaneBody=0;top=0;left=0;bottom=0;right=0;collapsible=0;dropTarget=0;fillColor=none;points=[[0,0.5],[1,0.5]];portConstraint=eastwest;rounded=0;shadow=0;labelBackgroundColor=#FFFFFF;sketch=0;strokeColor=#000000;strokeWidth=1;fontSize=12;fontColor=#000000;" parent="268" vertex="1">
                    <mxGeometry y="120" width="140" height="40" as="geometry"/>
                </mxCell>
                <mxCell id="276" value="Name" style="shape=partialRectangle;html=1;whiteSpace=wrap;connectable=0;overflow=hidden;fillColor=none;top=0;left=0;bottom=0;right=0;pointerEvents=1;rounded=0;shadow=0;labelBackgroundColor=#FFFFFF;sketch=0;strokeColor=#000000;strokeWidth=1;fontSize=12;fontColor=#000000;" parent="275" vertex="1">
                    <mxGeometry width="140" height="40" as="geometry">
                        <mxRectangle width="140" height="40" as="alternateBounds"/>
                    </mxGeometry>
                </mxCell>
                <mxCell id="277" value="" style="shape=tableRow;horizontal=0;startSize=0;swimlaneHead=0;swimlaneBody=0;top=0;left=0;bottom=0;right=0;collapsible=0;dropTarget=0;fillColor=none;points=[[0,0.5],[1,0.5]];portConstraint=eastwest;rounded=0;shadow=0;labelBackgroundColor=#FFFFFF;sketch=0;strokeColor=#000000;strokeWidth=1;fontSize=12;fontColor=#000000;" parent="268" vertex="1">
                    <mxGeometry y="160" width="140" height="40" as="geometry"/>
                </mxCell>
                <mxCell id="278" value="Description" style="shape=partialRectangle;html=1;whiteSpace=wrap;connectable=0;overflow=hidden;fillColor=none;top=0;left=0;bottom=0;right=0;pointerEvents=1;rounded=0;shadow=0;labelBackgroundColor=#FFFFFF;sketch=0;strokeColor=#000000;strokeWidth=1;fontSize=12;fontColor=#000000;" parent="277" vertex="1">
                    <mxGeometry width="140" height="40" as="geometry">
                        <mxRectangle width="140" height="40" as="alternateBounds"/>
                    </mxGeometry>
                </mxCell>
                <mxCell id="279" value="" style="shape=table;startSize=0;container=1;collapsible=0;childLayout=tableLayout;rounded=0;shadow=0;labelBackgroundColor=#FFFFFF;sketch=0;strokeWidth=1;fontSize=12;fillColor=#f9f7ed;strokeColor=#36393d;" parent="267" vertex="1">
                    <mxGeometry x="620" y="-50" width="170" height="379.99999999999955" as="geometry"/>
                </mxCell>
                <mxCell id="280" value="" style="shape=tableRow;horizontal=0;startSize=0;swimlaneHead=0;swimlaneBody=0;top=0;left=0;bottom=0;right=0;collapsible=0;dropTarget=0;fillColor=none;points=[[0,0.5],[1,0.5]];portConstraint=eastwest;rounded=0;shadow=0;labelBackgroundColor=#FFFFFF;sketch=0;strokeColor=#000000;strokeWidth=1;fontSize=12;fontColor=#000000;" parent="279" vertex="1">
                    <mxGeometry width="170" height="40" as="geometry"/>
                </mxCell>
                <mxCell id="281" value="&lt;b&gt;[ADMIN] Template Type Variables&lt;/b&gt;" style="shape=partialRectangle;html=1;whiteSpace=wrap;connectable=0;overflow=hidden;fillColor=none;top=0;left=0;bottom=0;right=0;pointerEvents=1;rounded=0;shadow=0;labelBackgroundColor=#FFFFFF;sketch=0;strokeColor=#000000;strokeWidth=1;fontSize=12;fontColor=#000000;" parent="280" vertex="1">
                    <mxGeometry width="170" height="40" as="geometry">
                        <mxRectangle width="170" height="40" as="alternateBounds"/>
                    </mxGeometry>
                </mxCell>
                <mxCell id="282" value="" style="shape=tableRow;horizontal=0;startSize=0;swimlaneHead=0;swimlaneBody=0;top=0;left=0;bottom=0;right=0;collapsible=0;dropTarget=0;fillColor=none;points=[[0,0.5],[1,0.5]];portConstraint=eastwest;rounded=0;shadow=0;labelBackgroundColor=#FFFFFF;sketch=0;strokeColor=#000000;strokeWidth=1;fontSize=12;fontColor=#000000;" parent="279" vertex="1">
                    <mxGeometry y="40" width="170" height="40" as="geometry"/>
                </mxCell>
                <mxCell id="283" value="Template Type Variables UUID" style="shape=partialRectangle;html=1;whiteSpace=wrap;connectable=0;overflow=hidden;fillColor=none;top=0;left=0;bottom=0;right=0;pointerEvents=1;rounded=0;shadow=0;labelBackgroundColor=#FFFFFF;sketch=0;strokeColor=#000000;strokeWidth=1;fontSize=12;fontColor=#000000;" parent="282" vertex="1">
                    <mxGeometry width="170" height="40" as="geometry">
                        <mxRectangle width="170" height="40" as="alternateBounds"/>
                    </mxGeometry>
                </mxCell>
                <mxCell id="284" value="" style="shape=tableRow;horizontal=0;startSize=0;swimlaneHead=0;swimlaneBody=0;top=0;left=0;bottom=0;right=0;collapsible=0;dropTarget=0;fillColor=none;points=[[0,0.5],[1,0.5]];portConstraint=eastwest;rounded=0;shadow=0;labelBackgroundColor=#FFFFFF;sketch=0;strokeColor=#000000;strokeWidth=1;fontSize=12;fontColor=#000000;" parent="279" vertex="1">
                    <mxGeometry y="80" width="170" height="40" as="geometry"/>
                </mxCell>
                <mxCell id="285" value="Template Type UUID" style="shape=partialRectangle;html=1;whiteSpace=wrap;connectable=0;overflow=hidden;fillColor=none;top=0;left=0;bottom=0;right=0;pointerEvents=1;rounded=0;shadow=0;labelBackgroundColor=#FFFFFF;sketch=0;strokeColor=#000000;strokeWidth=1;fontSize=12;fontColor=#000000;" parent="284" vertex="1">
                    <mxGeometry width="170" height="40" as="geometry">
                        <mxRectangle width="170" height="40" as="alternateBounds"/>
                    </mxGeometry>
                </mxCell>
                <mxCell id="286" value="" style="shape=tableRow;horizontal=0;startSize=0;swimlaneHead=0;swimlaneBody=0;top=0;left=0;bottom=0;right=0;collapsible=0;dropTarget=0;fillColor=none;points=[[0,0.5],[1,0.5]];portConstraint=eastwest;rounded=0;shadow=0;labelBackgroundColor=#FFFFFF;sketch=0;strokeColor=#000000;strokeWidth=1;fontSize=12;fontColor=#000000;" parent="279" vertex="1">
                    <mxGeometry y="120" width="170" height="40" as="geometry"/>
                </mxCell>
                <mxCell id="287" value="Name" style="shape=partialRectangle;html=1;whiteSpace=wrap;connectable=0;overflow=hidden;fillColor=none;top=0;left=0;bottom=0;right=0;pointerEvents=1;rounded=0;shadow=0;labelBackgroundColor=#FFFFFF;sketch=0;strokeColor=#000000;strokeWidth=1;fontSize=12;fontColor=#000000;" parent="286" vertex="1">
                    <mxGeometry width="170" height="40" as="geometry">
                        <mxRectangle width="170" height="40" as="alternateBounds"/>
                    </mxGeometry>
                </mxCell>
                <mxCell id="288" value="" style="shape=tableRow;horizontal=0;startSize=0;swimlaneHead=0;swimlaneBody=0;top=0;left=0;bottom=0;right=0;collapsible=0;dropTarget=0;fillColor=none;points=[[0,0.5],[1,0.5]];portConstraint=eastwest;rounded=0;shadow=0;labelBackgroundColor=#FFFFFF;sketch=0;strokeColor=#000000;strokeWidth=1;fontSize=12;fontColor=#000000;" parent="279" vertex="1">
                    <mxGeometry y="160" width="170" height="40" as="geometry"/>
                </mxCell>
                <mxCell id="289" value="Target Units" style="shape=partialRectangle;html=1;whiteSpace=wrap;connectable=0;overflow=hidden;fillColor=none;top=0;left=0;bottom=0;right=0;pointerEvents=1;rounded=0;shadow=0;labelBackgroundColor=#FFFFFF;sketch=0;strokeColor=#000000;strokeWidth=1;fontSize=12;fontColor=#000000;" parent="288" vertex="1">
                    <mxGeometry width="170" height="40" as="geometry">
                        <mxRectangle width="170" height="40" as="alternateBounds"/>
                    </mxGeometry>
                </mxCell>
                <mxCell id="290" style="shape=tableRow;horizontal=0;startSize=0;swimlaneHead=0;swimlaneBody=0;top=0;left=0;bottom=0;right=0;collapsible=0;dropTarget=0;fillColor=none;points=[[0,0.5],[1,0.5]];portConstraint=eastwest;rounded=0;shadow=0;labelBackgroundColor=#FFFFFF;sketch=0;strokeColor=#000000;strokeWidth=1;fontSize=12;fontColor=#000000;" parent="279" vertex="1">
                    <mxGeometry y="200" width="170" height="40" as="geometry"/>
                </mxCell>
                <mxCell id="291" value="Default Value" style="shape=partialRectangle;html=1;whiteSpace=wrap;connectable=0;overflow=hidden;fillColor=none;top=0;left=0;bottom=0;right=0;pointerEvents=1;rounded=0;shadow=0;labelBackgroundColor=#FFFFFF;sketch=0;strokeColor=#000000;strokeWidth=1;fontSize=12;fontColor=#000000;" parent="290" vertex="1">
                    <mxGeometry width="170" height="40" as="geometry">
                        <mxRectangle width="170" height="40" as="alternateBounds"/>
                    </mxGeometry>
                </mxCell>
                <mxCell id="292" style="shape=tableRow;horizontal=0;startSize=0;swimlaneHead=0;swimlaneBody=0;top=0;left=0;bottom=0;right=0;collapsible=0;dropTarget=0;fillColor=none;points=[[0,0.5],[1,0.5]];portConstraint=eastwest;rounded=0;shadow=0;labelBackgroundColor=#FFFFFF;sketch=0;strokeColor=#000000;strokeWidth=1;fontSize=12;fontColor=#000000;" parent="279" vertex="1">
                    <mxGeometry y="240" width="170" height="40" as="geometry"/>
                </mxCell>
                <mxCell id="293" value="Description" style="shape=partialRectangle;html=1;whiteSpace=wrap;connectable=0;overflow=hidden;fillColor=none;top=0;left=0;bottom=0;right=0;pointerEvents=1;rounded=0;shadow=0;labelBackgroundColor=#FFFFFF;sketch=0;strokeColor=#000000;strokeWidth=1;fontSize=12;fontColor=#000000;" parent="292" vertex="1">
                    <mxGeometry width="170" height="40" as="geometry">
                        <mxRectangle width="170" height="40" as="alternateBounds"/>
                    </mxGeometry>
                </mxCell>
                <mxCell id="695" style="shape=tableRow;horizontal=0;startSize=0;swimlaneHead=0;swimlaneBody=0;top=0;left=0;bottom=0;right=0;collapsible=0;dropTarget=0;fillColor=none;points=[[0,0.5],[1,0.5]];portConstraint=eastwest;rounded=0;shadow=0;labelBackgroundColor=#FFFFFF;sketch=0;strokeColor=#000000;strokeWidth=1;fontSize=12;fontColor=#000000;" vertex="1" parent="279">
                    <mxGeometry y="280" width="170" height="40" as="geometry"/>
                </mxCell>
                <mxCell id="696" value="Timeseries Enabled" style="shape=partialRectangle;html=1;whiteSpace=wrap;connectable=0;overflow=hidden;fillColor=none;top=0;left=0;bottom=0;right=0;pointerEvents=1;rounded=0;shadow=0;labelBackgroundColor=#FFFFFF;sketch=0;strokeColor=#000000;strokeWidth=1;fontSize=12;fontColor=#000000;" vertex="1" parent="695">
                    <mxGeometry width="170" height="40" as="geometry">
                        <mxRectangle width="170" height="40" as="alternateBounds"/>
                    </mxGeometry>
                </mxCell>
                <mxCell id="698" style="shape=tableRow;horizontal=0;startSize=0;swimlaneHead=0;swimlaneBody=0;top=0;left=0;bottom=0;right=0;collapsible=0;dropTarget=0;fillColor=none;points=[[0,0.5],[1,0.5]];portConstraint=eastwest;rounded=0;shadow=0;labelBackgroundColor=#FFFFFF;sketch=0;strokeColor=#000000;strokeWidth=1;fontSize=12;fontColor=#000000;" vertex="1" parent="279">
                    <mxGeometry y="320" width="170" height="30" as="geometry"/>
                </mxCell>
                <mxCell id="699" value="Category" style="shape=partialRectangle;html=1;whiteSpace=wrap;connectable=0;overflow=hidden;fillColor=none;top=0;left=0;bottom=0;right=0;pointerEvents=1;rounded=0;shadow=0;labelBackgroundColor=#FFFFFF;sketch=0;strokeColor=#000000;strokeWidth=1;fontSize=12;fontColor=#000000;" vertex="1" parent="698">
                    <mxGeometry width="170" height="30" as="geometry">
                        <mxRectangle width="170" height="30" as="alternateBounds"/>
                    </mxGeometry>
                </mxCell>
                <mxCell id="700" style="shape=tableRow;horizontal=0;startSize=0;swimlaneHead=0;swimlaneBody=0;top=0;left=0;bottom=0;right=0;collapsible=0;dropTarget=0;fillColor=none;points=[[0,0.5],[1,0.5]];portConstraint=eastwest;rounded=0;shadow=0;labelBackgroundColor=#FFFFFF;sketch=0;strokeColor=#000000;strokeWidth=1;fontSize=12;fontColor=#000000;" vertex="1" parent="279">
                    <mxGeometry y="350" width="170" height="30" as="geometry"/>
                </mxCell>
                <mxCell id="701" value="Choices" style="shape=partialRectangle;html=1;whiteSpace=wrap;connectable=0;overflow=hidden;fillColor=none;top=0;left=0;bottom=0;right=0;pointerEvents=1;rounded=0;shadow=0;labelBackgroundColor=#FFFFFF;sketch=0;strokeColor=#000000;strokeWidth=1;fontSize=12;fontColor=#000000;" vertex="1" parent="700">
                    <mxGeometry width="170" height="30" as="geometry">
                        <mxRectangle width="170" height="30" as="alternateBounds"/>
                    </mxGeometry>
                </mxCell>
                <mxCell id="294" value="" style="edgeStyle=orthogonalEdgeStyle;html=1;strokeColor=#2b6fc7;fontSize=12;fontColor=#000000;exitX=1;exitY=0.5;exitDx=0;exitDy=0;entryX=0;entryY=0.5;entryDx=0;entryDy=0;" parent="267" source="271" target="284" edge="1">
                    <mxGeometry relative="1" as="geometry">
                        <mxPoint x="220" y="110" as="sourcePoint"/>
                        <mxPoint x="280" y="110" as="targetPoint"/>
                        <Array as="points"/>
                    </mxGeometry>
                </mxCell>
                <mxCell id="295" value="" style="shape=table;startSize=0;container=1;collapsible=0;childLayout=tableLayout;rounded=0;shadow=0;labelBackgroundColor=#FFFFFF;sketch=0;strokeWidth=1;fontSize=12;fillColor=#f9f7ed;strokeColor=#36393d;" parent="267" vertex="1">
                    <mxGeometry x="620" y="350" width="170" height="320" as="geometry"/>
                </mxCell>
                <mxCell id="296" value="" style="shape=tableRow;horizontal=0;startSize=0;swimlaneHead=0;swimlaneBody=0;top=0;left=0;bottom=0;right=0;collapsible=0;dropTarget=0;fillColor=none;points=[[0,0.5],[1,0.5]];portConstraint=eastwest;rounded=0;shadow=0;labelBackgroundColor=#FFFFFF;sketch=0;strokeColor=#000000;strokeWidth=1;fontSize=12;fontColor=#000000;" parent="295" vertex="1">
                    <mxGeometry width="170" height="40" as="geometry"/>
                </mxCell>
                <mxCell id="297" value="&lt;b&gt;[ADMIN] Template Type Locs&amp;nbsp;&lt;/b&gt;" style="shape=partialRectangle;html=1;whiteSpace=wrap;connectable=0;overflow=hidden;fillColor=none;top=0;left=0;bottom=0;right=0;pointerEvents=1;rounded=0;shadow=0;labelBackgroundColor=#FFFFFF;sketch=0;strokeColor=#000000;strokeWidth=1;fontSize=12;fontColor=#000000;" parent="296" vertex="1">
                    <mxGeometry width="170" height="40" as="geometry">
                        <mxRectangle width="170" height="40" as="alternateBounds"/>
                    </mxGeometry>
                </mxCell>
                <mxCell id="298" value="" style="shape=tableRow;horizontal=0;startSize=0;swimlaneHead=0;swimlaneBody=0;top=0;left=0;bottom=0;right=0;collapsible=0;dropTarget=0;fillColor=none;points=[[0,0.5],[1,0.5]];portConstraint=eastwest;rounded=0;shadow=0;labelBackgroundColor=#FFFFFF;sketch=0;strokeColor=#000000;strokeWidth=1;fontSize=12;fontColor=#000000;" parent="295" vertex="1">
                    <mxGeometry y="40" width="170" height="40" as="geometry"/>
                </mxCell>
                <mxCell id="299" value="Template Type Locs UUID" style="shape=partialRectangle;html=1;whiteSpace=wrap;connectable=0;overflow=hidden;fillColor=none;top=0;left=0;bottom=0;right=0;pointerEvents=1;rounded=0;shadow=0;labelBackgroundColor=#FFFFFF;sketch=0;strokeColor=#000000;strokeWidth=1;fontSize=12;fontColor=#000000;" parent="298" vertex="1">
                    <mxGeometry width="170" height="40" as="geometry">
                        <mxRectangle width="170" height="40" as="alternateBounds"/>
                    </mxGeometry>
                </mxCell>
                <mxCell id="300" value="" style="shape=tableRow;horizontal=0;startSize=0;swimlaneHead=0;swimlaneBody=0;top=0;left=0;bottom=0;right=0;collapsible=0;dropTarget=0;fillColor=none;points=[[0,0.5],[1,0.5]];portConstraint=eastwest;rounded=0;shadow=0;labelBackgroundColor=#FFFFFF;sketch=0;strokeColor=#000000;strokeWidth=1;fontSize=12;fontColor=#000000;" parent="295" vertex="1">
                    <mxGeometry y="80" width="170" height="40" as="geometry"/>
                </mxCell>
                <mxCell id="301" value="Template Type UUID" style="shape=partialRectangle;html=1;whiteSpace=wrap;connectable=0;overflow=hidden;fillColor=none;top=0;left=0;bottom=0;right=0;pointerEvents=1;rounded=0;shadow=0;labelBackgroundColor=#FFFFFF;sketch=0;strokeColor=#000000;strokeWidth=1;fontSize=12;fontColor=#000000;" parent="300" vertex="1">
                    <mxGeometry width="170" height="40" as="geometry">
                        <mxRectangle width="170" height="40" as="alternateBounds"/>
                    </mxGeometry>
                </mxCell>
                <mxCell id="302" value="" style="shape=tableRow;horizontal=0;startSize=0;swimlaneHead=0;swimlaneBody=0;top=0;left=0;bottom=0;right=0;collapsible=0;dropTarget=0;fillColor=none;points=[[0,0.5],[1,0.5]];portConstraint=eastwest;rounded=0;shadow=0;labelBackgroundColor=#FFFFFF;sketch=0;strokeColor=#000000;strokeWidth=1;fontSize=12;fontColor=#000000;" parent="295" vertex="1">
                    <mxGeometry y="120" width="170" height="40" as="geometry"/>
                </mxCell>
                <mxCell id="303" value="Name" style="shape=partialRectangle;html=1;whiteSpace=wrap;connectable=0;overflow=hidden;fillColor=none;top=0;left=0;bottom=0;right=0;pointerEvents=1;rounded=0;shadow=0;labelBackgroundColor=#FFFFFF;sketch=0;strokeColor=#000000;strokeWidth=1;fontSize=12;fontColor=#000000;" parent="302" vertex="1">
                    <mxGeometry width="170" height="40" as="geometry">
                        <mxRectangle width="170" height="40" as="alternateBounds"/>
                    </mxGeometry>
                </mxCell>
                <mxCell id="304" value="" style="shape=tableRow;horizontal=0;startSize=0;swimlaneHead=0;swimlaneBody=0;top=0;left=0;bottom=0;right=0;collapsible=0;dropTarget=0;fillColor=none;points=[[0,0.5],[1,0.5]];portConstraint=eastwest;rounded=0;shadow=0;labelBackgroundColor=#FFFFFF;sketch=0;strokeColor=#000000;strokeWidth=1;fontSize=12;fontColor=#000000;" parent="295" vertex="1">
                    <mxGeometry y="160" width="170" height="40" as="geometry"/>
                </mxCell>
                <mxCell id="305" value="Lat Offset" style="shape=partialRectangle;html=1;whiteSpace=wrap;connectable=0;overflow=hidden;fillColor=none;top=0;left=0;bottom=0;right=0;pointerEvents=1;rounded=0;shadow=0;labelBackgroundColor=#FFFFFF;sketch=0;strokeColor=#000000;strokeWidth=1;fontSize=12;fontColor=#000000;" parent="304" vertex="1">
                    <mxGeometry width="170" height="40" as="geometry">
                        <mxRectangle width="170" height="40" as="alternateBounds"/>
                    </mxGeometry>
                </mxCell>
                <mxCell id="669" style="shape=tableRow;horizontal=0;startSize=0;swimlaneHead=0;swimlaneBody=0;top=0;left=0;bottom=0;right=0;collapsible=0;dropTarget=0;fillColor=none;points=[[0,0.5],[1,0.5]];portConstraint=eastwest;rounded=0;shadow=0;labelBackgroundColor=#FFFFFF;sketch=0;strokeColor=#000000;strokeWidth=1;fontSize=12;fontColor=#000000;" parent="295" vertex="1">
                    <mxGeometry y="200" width="170" height="40" as="geometry"/>
                </mxCell>
                <mxCell id="670" value="Long Offset" style="shape=partialRectangle;html=1;whiteSpace=wrap;connectable=0;overflow=hidden;fillColor=none;top=0;left=0;bottom=0;right=0;pointerEvents=1;rounded=0;shadow=0;labelBackgroundColor=#FFFFFF;sketch=0;strokeColor=#000000;strokeWidth=1;fontSize=12;fontColor=#000000;" parent="669" vertex="1">
                    <mxGeometry width="170" height="40" as="geometry">
                        <mxRectangle width="170" height="40" as="alternateBounds"/>
                    </mxGeometry>
                </mxCell>
                <mxCell id="306" style="shape=tableRow;horizontal=0;startSize=0;swimlaneHead=0;swimlaneBody=0;top=0;left=0;bottom=0;right=0;collapsible=0;dropTarget=0;fillColor=none;points=[[0,0.5],[1,0.5]];portConstraint=eastwest;rounded=0;shadow=0;labelBackgroundColor=#FFFFFF;sketch=0;strokeColor=#000000;strokeWidth=1;fontSize=12;fontColor=#000000;" parent="295" vertex="1">
                    <mxGeometry y="240" width="170" height="40" as="geometry"/>
                </mxCell>
                <mxCell id="307" value="Long Offset" style="shape=partialRectangle;html=1;whiteSpace=wrap;connectable=0;overflow=hidden;fillColor=none;top=0;left=0;bottom=0;right=0;pointerEvents=1;rounded=0;shadow=0;labelBackgroundColor=#FFFFFF;sketch=0;strokeColor=#000000;strokeWidth=1;fontSize=12;fontColor=#000000;" parent="306" vertex="1">
                    <mxGeometry width="170" height="40" as="geometry">
                        <mxRectangle width="170" height="40" as="alternateBounds"/>
                    </mxGeometry>
                </mxCell>
                <mxCell id="308" style="shape=tableRow;horizontal=0;startSize=0;swimlaneHead=0;swimlaneBody=0;top=0;left=0;bottom=0;right=0;collapsible=0;dropTarget=0;fillColor=none;points=[[0,0.5],[1,0.5]];portConstraint=eastwest;rounded=0;shadow=0;labelBackgroundColor=#FFFFFF;sketch=0;strokeColor=#000000;strokeWidth=1;fontSize=12;fontColor=#000000;" parent="295" vertex="1">
                    <mxGeometry y="280" width="170" height="40" as="geometry"/>
                </mxCell>
                <mxCell id="309" value="Primary Location" style="shape=partialRectangle;html=1;whiteSpace=wrap;connectable=0;overflow=hidden;fillColor=none;top=0;left=0;bottom=0;right=0;pointerEvents=1;rounded=0;shadow=0;labelBackgroundColor=#FFFFFF;sketch=0;strokeColor=#000000;strokeWidth=1;fontSize=12;fontColor=#000000;" parent="308" vertex="1">
                    <mxGeometry width="170" height="40" as="geometry">
                        <mxRectangle width="170" height="40" as="alternateBounds"/>
                    </mxGeometry>
                </mxCell>
                <mxCell id="310" value="" style="edgeStyle=orthogonalEdgeStyle;html=1;strokeColor=#2b6fc7;fontSize=12;fontColor=#000000;entryX=0;entryY=0.5;entryDx=0;entryDy=0;" parent="267" source="271" target="300" edge="1">
                    <mxGeometry relative="1" as="geometry">
                        <mxPoint x="540" y="95" as="sourcePoint"/>
                        <mxPoint x="630" y="130" as="targetPoint"/>
                        <Array as="points">
                            <mxPoint x="560" y="85"/>
                            <mxPoint x="560" y="450"/>
                        </Array>
                    </mxGeometry>
                </mxCell>
                <mxCell id="311" value="" style="shape=table;startSize=0;container=1;collapsible=0;childLayout=tableLayout;rounded=0;shadow=0;labelBackgroundColor=#FFFFFF;sketch=0;strokeWidth=1;fontSize=12;fillColor=#f9f7ed;strokeColor=#36393d;" parent="267" vertex="1">
                    <mxGeometry x="620" y="680" width="170" height="320" as="geometry"/>
                </mxCell>
                <mxCell id="312" value="" style="shape=tableRow;horizontal=0;startSize=0;swimlaneHead=0;swimlaneBody=0;top=0;left=0;bottom=0;right=0;collapsible=0;dropTarget=0;fillColor=none;points=[[0,0.5],[1,0.5]];portConstraint=eastwest;rounded=0;shadow=0;labelBackgroundColor=#FFFFFF;sketch=0;strokeColor=#000000;strokeWidth=1;fontSize=12;fontColor=#000000;" parent="311" vertex="1">
                    <mxGeometry width="170" height="40" as="geometry"/>
                </mxCell>
                <mxCell id="313" value="&lt;b&gt;[ADMIN] Template Type Techs&lt;/b&gt;" style="shape=partialRectangle;html=1;whiteSpace=wrap;connectable=0;overflow=hidden;fillColor=none;top=0;left=0;bottom=0;right=0;pointerEvents=1;rounded=0;shadow=0;labelBackgroundColor=#FFFFFF;sketch=0;strokeColor=#000000;strokeWidth=1;fontSize=12;fontColor=#000000;" parent="312" vertex="1">
                    <mxGeometry width="170" height="40" as="geometry">
                        <mxRectangle width="170" height="40" as="alternateBounds"/>
                    </mxGeometry>
                </mxCell>
                <mxCell id="314" value="" style="shape=tableRow;horizontal=0;startSize=0;swimlaneHead=0;swimlaneBody=0;top=0;left=0;bottom=0;right=0;collapsible=0;dropTarget=0;fillColor=none;points=[[0,0.5],[1,0.5]];portConstraint=eastwest;rounded=0;shadow=0;labelBackgroundColor=#FFFFFF;sketch=0;strokeColor=#000000;strokeWidth=1;fontSize=12;fontColor=#000000;" parent="311" vertex="1">
                    <mxGeometry y="40" width="170" height="40" as="geometry"/>
                </mxCell>
                <mxCell id="315" value="Template Type Techs UUID" style="shape=partialRectangle;html=1;whiteSpace=wrap;connectable=0;overflow=hidden;fillColor=none;top=0;left=0;bottom=0;right=0;pointerEvents=1;rounded=0;shadow=0;labelBackgroundColor=#FFFFFF;sketch=0;strokeColor=#000000;strokeWidth=1;fontSize=12;fontColor=#000000;" parent="314" vertex="1">
                    <mxGeometry width="170" height="40" as="geometry">
                        <mxRectangle width="170" height="40" as="alternateBounds"/>
                    </mxGeometry>
                </mxCell>
                <mxCell id="316" value="" style="shape=tableRow;horizontal=0;startSize=0;swimlaneHead=0;swimlaneBody=0;top=0;left=0;bottom=0;right=0;collapsible=0;dropTarget=0;fillColor=none;points=[[0,0.5],[1,0.5]];portConstraint=eastwest;rounded=0;shadow=0;labelBackgroundColor=#FFFFFF;sketch=0;strokeColor=#000000;strokeWidth=1;fontSize=12;fontColor=#000000;" parent="311" vertex="1">
                    <mxGeometry y="80" width="170" height="40" as="geometry"/>
                </mxCell>
                <mxCell id="317" value="Template Type UUID" style="shape=partialRectangle;html=1;whiteSpace=wrap;connectable=0;overflow=hidden;fillColor=none;top=0;left=0;bottom=0;right=0;pointerEvents=1;rounded=0;shadow=0;labelBackgroundColor=#FFFFFF;sketch=0;strokeColor=#000000;strokeWidth=1;fontSize=12;fontColor=#000000;" parent="316" vertex="1">
                    <mxGeometry width="170" height="40" as="geometry">
                        <mxRectangle width="170" height="40" as="alternateBounds"/>
                    </mxGeometry>
                </mxCell>
                <mxCell id="318" value="" style="shape=tableRow;horizontal=0;startSize=0;swimlaneHead=0;swimlaneBody=0;top=0;left=0;bottom=0;right=0;collapsible=0;dropTarget=0;fillColor=none;points=[[0,0.5],[1,0.5]];portConstraint=eastwest;rounded=0;shadow=0;labelBackgroundColor=#FFFFFF;sketch=0;strokeColor=#000000;strokeWidth=1;fontSize=12;fontColor=#000000;" parent="311" vertex="1">
                    <mxGeometry y="120" width="170" height="40" as="geometry"/>
                </mxCell>
                <mxCell id="319" value="Name" style="shape=partialRectangle;html=1;whiteSpace=wrap;connectable=0;overflow=hidden;fillColor=none;top=0;left=0;bottom=0;right=0;pointerEvents=1;rounded=0;shadow=0;labelBackgroundColor=#FFFFFF;sketch=0;strokeColor=#000000;strokeWidth=1;fontSize=12;fontColor=#000000;" parent="318" vertex="1">
                    <mxGeometry width="170" height="40" as="geometry">
                        <mxRectangle width="170" height="40" as="alternateBounds"/>
                    </mxGeometry>
                </mxCell>
                <mxCell id="320" value="" style="shape=tableRow;horizontal=0;startSize=0;swimlaneHead=0;swimlaneBody=0;top=0;left=0;bottom=0;right=0;collapsible=0;dropTarget=0;fillColor=none;points=[[0,0.5],[1,0.5]];portConstraint=eastwest;rounded=0;shadow=0;labelBackgroundColor=#FFFFFF;sketch=0;strokeColor=#000000;strokeWidth=1;fontSize=12;fontColor=#000000;" parent="311" vertex="1">
                    <mxGeometry y="160" width="170" height="40" as="geometry"/>
                </mxCell>
                <mxCell id="321" value="Technology Type" style="shape=partialRectangle;html=1;whiteSpace=wrap;connectable=0;overflow=hidden;fillColor=none;top=0;left=0;bottom=0;right=0;pointerEvents=1;rounded=0;shadow=0;labelBackgroundColor=#FFFFFF;sketch=0;strokeColor=#000000;strokeWidth=1;fontSize=12;fontColor=#000000;" parent="320" vertex="1">
                    <mxGeometry width="170" height="40" as="geometry">
                        <mxRectangle width="170" height="40" as="alternateBounds"/>
                    </mxGeometry>
                </mxCell>
                <mxCell id="322" style="shape=tableRow;horizontal=0;startSize=0;swimlaneHead=0;swimlaneBody=0;top=0;left=0;bottom=0;right=0;collapsible=0;dropTarget=0;fillColor=none;points=[[0,0.5],[1,0.5]];portConstraint=eastwest;rounded=0;shadow=0;labelBackgroundColor=#FFFFFF;sketch=0;strokeColor=#000000;strokeWidth=1;fontSize=12;fontColor=#000000;" parent="311" vertex="1">
                    <mxGeometry y="200" width="170" height="40" as="geometry"/>
                </mxCell>
                <mxCell id="323" value="Carrier In" style="shape=partialRectangle;html=1;whiteSpace=wrap;connectable=0;overflow=hidden;fillColor=none;top=0;left=0;bottom=0;right=0;pointerEvents=1;rounded=0;shadow=0;labelBackgroundColor=#FFFFFF;sketch=0;strokeColor=#000000;strokeWidth=1;fontSize=12;fontColor=#000000;" parent="322" vertex="1">
                    <mxGeometry width="170" height="40" as="geometry">
                        <mxRectangle width="170" height="40" as="alternateBounds"/>
                    </mxGeometry>
                </mxCell>
                <mxCell id="324" style="shape=tableRow;horizontal=0;startSize=0;swimlaneHead=0;swimlaneBody=0;top=0;left=0;bottom=0;right=0;collapsible=0;dropTarget=0;fillColor=none;points=[[0,0.5],[1,0.5]];portConstraint=eastwest;rounded=0;shadow=0;labelBackgroundColor=#FFFFFF;sketch=0;strokeColor=#000000;strokeWidth=1;fontSize=12;fontColor=#000000;" parent="311" vertex="1">
                    <mxGeometry y="240" width="170" height="40" as="geometry"/>
                </mxCell>
                <mxCell id="325" value="Carrier Out" style="shape=partialRectangle;html=1;whiteSpace=wrap;connectable=0;overflow=hidden;fillColor=none;top=0;left=0;bottom=0;right=0;pointerEvents=1;rounded=0;shadow=0;labelBackgroundColor=#FFFFFF;sketch=0;strokeColor=#000000;strokeWidth=1;fontSize=12;fontColor=#000000;" parent="324" vertex="1">
                    <mxGeometry width="170" height="40" as="geometry">
                        <mxRectangle width="170" height="40" as="alternateBounds"/>
                    </mxGeometry>
                </mxCell>
                <mxCell id="326" style="shape=tableRow;horizontal=0;startSize=0;swimlaneHead=0;swimlaneBody=0;top=0;left=0;bottom=0;right=0;collapsible=0;dropTarget=0;fillColor=none;points=[[0,0.5],[1,0.5]];portConstraint=eastwest;rounded=0;shadow=0;labelBackgroundColor=#FFFFFF;sketch=0;strokeColor=#000000;strokeWidth=1;fontSize=12;fontColor=#000000;" parent="311" vertex="1">
                    <mxGeometry y="280" width="170" height="40" as="geometry"/>
                </mxCell>
                <mxCell id="327" value="Color?" style="shape=partialRectangle;html=1;whiteSpace=wrap;connectable=0;overflow=hidden;fillColor=none;top=0;left=0;bottom=0;right=0;pointerEvents=1;rounded=0;shadow=0;labelBackgroundColor=#FFFFFF;sketch=0;strokeColor=#000000;strokeWidth=1;fontSize=12;fontColor=#000000;" parent="326" vertex="1">
                    <mxGeometry width="170" height="40" as="geometry">
                        <mxRectangle width="170" height="40" as="alternateBounds"/>
                    </mxGeometry>
                </mxCell>
                <mxCell id="328" value="" style="edgeStyle=orthogonalEdgeStyle;html=1;strokeColor=#2b6fc7;fontSize=12;fontColor=#000000;entryX=0;entryY=0.5;entryDx=0;entryDy=0;exitX=1;exitY=0.5;exitDx=0;exitDy=0;" parent="267" source="271" target="316" edge="1">
                    <mxGeometry relative="1" as="geometry">
                        <mxPoint x="530" y="90" as="sourcePoint"/>
                        <mxPoint x="630.0000000000002" y="460" as="targetPoint"/>
                        <Array as="points">
                            <mxPoint x="550" y="85"/>
                            <mxPoint x="550" y="780"/>
                        </Array>
                    </mxGeometry>
                </mxCell>
                <mxCell id="329" value="" style="shape=table;startSize=0;container=1;collapsible=0;childLayout=tableLayout;rounded=0;shadow=0;labelBackgroundColor=#FFFFFF;sketch=0;strokeWidth=1;fontSize=12;fillColor=#f9f7ed;strokeColor=#36393d;" parent="267" vertex="1">
                    <mxGeometry x="310" y="480" width="170" height="200" as="geometry"/>
                </mxCell>
                <mxCell id="330" value="" style="shape=tableRow;horizontal=0;startSize=0;swimlaneHead=0;swimlaneBody=0;top=0;left=0;bottom=0;right=0;collapsible=0;dropTarget=0;fillColor=none;points=[[0,0.5],[1,0.5]];portConstraint=eastwest;rounded=0;shadow=0;labelBackgroundColor=#FFFFFF;sketch=0;strokeColor=#000000;strokeWidth=1;fontSize=12;fontColor=#000000;" parent="329" vertex="1">
                    <mxGeometry width="170" height="40" as="geometry"/>
                </mxCell>
                <mxCell id="331" value="&lt;b&gt;[ADMIN] Template Type Loc Techs&lt;/b&gt;" style="shape=partialRectangle;html=1;whiteSpace=wrap;connectable=0;overflow=hidden;fillColor=none;top=0;left=0;bottom=0;right=0;pointerEvents=1;rounded=0;shadow=0;labelBackgroundColor=#FFFFFF;sketch=0;strokeColor=#000000;strokeWidth=1;fontSize=12;fontColor=#000000;" parent="330" vertex="1">
                    <mxGeometry width="170" height="40" as="geometry">
                        <mxRectangle width="170" height="40" as="alternateBounds"/>
                    </mxGeometry>
                </mxCell>
                <mxCell id="332" value="" style="shape=tableRow;horizontal=0;startSize=0;swimlaneHead=0;swimlaneBody=0;top=0;left=0;bottom=0;right=0;collapsible=0;dropTarget=0;fillColor=none;points=[[0,0.5],[1,0.5]];portConstraint=eastwest;rounded=0;shadow=0;labelBackgroundColor=#FFFFFF;sketch=0;strokeColor=#000000;strokeWidth=1;fontSize=12;fontColor=#000000;" parent="329" vertex="1">
                    <mxGeometry y="40" width="170" height="40" as="geometry"/>
                </mxCell>
                <mxCell id="333" value="Template Type Loc Techs UUID" style="shape=partialRectangle;html=1;whiteSpace=wrap;connectable=0;overflow=hidden;fillColor=none;top=0;left=0;bottom=0;right=0;pointerEvents=1;rounded=0;shadow=0;labelBackgroundColor=#FFFFFF;sketch=0;strokeColor=#000000;strokeWidth=1;fontSize=12;fontColor=#000000;" parent="332" vertex="1">
                    <mxGeometry width="170" height="40" as="geometry">
                        <mxRectangle width="170" height="40" as="alternateBounds"/>
                    </mxGeometry>
                </mxCell>
                <mxCell id="334" value="" style="shape=tableRow;horizontal=0;startSize=0;swimlaneHead=0;swimlaneBody=0;top=0;left=0;bottom=0;right=0;collapsible=0;dropTarget=0;fillColor=none;points=[[0,0.5],[1,0.5]];portConstraint=eastwest;rounded=0;shadow=0;labelBackgroundColor=#FFFFFF;sketch=0;strokeColor=#000000;strokeWidth=1;fontSize=12;fontColor=#000000;" parent="329" vertex="1">
                    <mxGeometry y="80" width="170" height="40" as="geometry"/>
                </mxCell>
                <mxCell id="335" value="Template UUID" style="shape=partialRectangle;html=1;whiteSpace=wrap;connectable=0;overflow=hidden;fillColor=none;top=0;left=0;bottom=0;right=0;pointerEvents=1;rounded=0;shadow=0;labelBackgroundColor=#FFFFFF;sketch=0;strokeColor=#000000;strokeWidth=1;fontSize=12;fontColor=#000000;" parent="334" vertex="1">
                    <mxGeometry width="170" height="40" as="geometry">
                        <mxRectangle width="170" height="40" as="alternateBounds"/>
                    </mxGeometry>
                </mxCell>
                <mxCell id="336" value="" style="shape=tableRow;horizontal=0;startSize=0;swimlaneHead=0;swimlaneBody=0;top=0;left=0;bottom=0;right=0;collapsible=0;dropTarget=0;fillColor=none;points=[[0,0.5],[1,0.5]];portConstraint=eastwest;rounded=0;shadow=0;labelBackgroundColor=#FFFFFF;sketch=0;strokeColor=#000000;strokeWidth=1;fontSize=12;fontColor=#000000;" parent="329" vertex="1">
                    <mxGeometry y="120" width="170" height="40" as="geometry"/>
                </mxCell>
                <mxCell id="337" value="Template Type Locs UUID" style="shape=partialRectangle;html=1;whiteSpace=wrap;connectable=0;overflow=hidden;fillColor=none;top=0;left=0;bottom=0;right=0;pointerEvents=1;rounded=0;shadow=0;labelBackgroundColor=#FFFFFF;sketch=0;strokeColor=#000000;strokeWidth=1;fontSize=12;fontColor=#000000;" parent="336" vertex="1">
                    <mxGeometry width="170" height="40" as="geometry">
                        <mxRectangle width="170" height="40" as="alternateBounds"/>
                    </mxGeometry>
                </mxCell>
                <mxCell id="338" value="" style="shape=tableRow;horizontal=0;startSize=0;swimlaneHead=0;swimlaneBody=0;top=0;left=0;bottom=0;right=0;collapsible=0;dropTarget=0;fillColor=none;points=[[0,0.5],[1,0.5]];portConstraint=eastwest;rounded=0;shadow=0;labelBackgroundColor=#FFFFFF;sketch=0;strokeColor=#000000;strokeWidth=1;fontSize=12;fontColor=#000000;" parent="329" vertex="1">
                    <mxGeometry y="160" width="170" height="40" as="geometry"/>
                </mxCell>
                <mxCell id="339" value="Template Type Techs UUID" style="shape=partialRectangle;html=1;whiteSpace=wrap;connectable=0;overflow=hidden;fillColor=none;top=0;left=0;bottom=0;right=0;pointerEvents=1;rounded=0;shadow=0;labelBackgroundColor=#FFFFFF;sketch=0;strokeColor=#000000;strokeWidth=1;fontSize=12;fontColor=#000000;" parent="338" vertex="1">
                    <mxGeometry width="170" height="40" as="geometry">
                        <mxRectangle width="170" height="40" as="alternateBounds"/>
                    </mxGeometry>
                </mxCell>
                <mxCell id="340" value="" style="edgeStyle=orthogonalEdgeStyle;html=1;strokeColor=#2b6fc7;fontSize=12;fontColor=#000000;entryX=1;entryY=0.5;entryDx=0;entryDy=0;exitX=1;exitY=0.5;exitDx=0;exitDy=0;" parent="267" source="271" target="334" edge="1">
                    <mxGeometry relative="1" as="geometry">
                        <mxPoint x="530" y="90" as="sourcePoint"/>
                        <mxPoint x="630.0000000000002" y="789.9999999999998" as="targetPoint"/>
                        <Array as="points">
                            <mxPoint x="540" y="85"/>
                            <mxPoint x="540" y="580"/>
                        </Array>
                    </mxGeometry>
                </mxCell>
                <mxCell id="341" value="" style="edgeStyle=orthogonalEdgeStyle;html=1;strokeColor=#2b6fc7;fontSize=12;fontColor=#000000;" parent="267" source="338" edge="1">
                    <mxGeometry relative="1" as="geometry">
                        <mxPoint x="540.0000000000002" y="99.99999999999989" as="sourcePoint"/>
                        <mxPoint x="620" y="780" as="targetPoint"/>
                        <Array as="points">
                            <mxPoint x="500" y="660"/>
                            <mxPoint x="500" y="780"/>
                            <mxPoint x="620" y="780"/>
                        </Array>
                    </mxGeometry>
                </mxCell>
                <mxCell id="342" value="" style="edgeStyle=orthogonalEdgeStyle;html=1;strokeColor=#2b6fc7;fontSize=12;fontColor=#000000;entryX=0;entryY=0.5;entryDx=0;entryDy=0;" parent="267" target="298" edge="1">
                    <mxGeometry relative="1" as="geometry">
                        <mxPoint x="480" y="620" as="sourcePoint"/>
                        <mxPoint x="620" y="740" as="targetPoint"/>
                        <Array as="points">
                            <mxPoint x="500" y="620"/>
                            <mxPoint x="500" y="410"/>
                        </Array>
                    </mxGeometry>
                </mxCell>
                <mxCell id="343" value="" style="shape=table;startSize=0;container=1;collapsible=0;childLayout=tableLayout;rounded=0;shadow=0;labelBackgroundColor=#FFFFFF;sketch=0;strokeWidth=1;fontSize=12;fillColor=#f9f7ed;strokeColor=#36393d;" parent="267" vertex="1">
                    <mxGeometry x="310" y="730" width="170" height="200" as="geometry"/>
                </mxCell>
                <mxCell id="344" value="" style="shape=tableRow;horizontal=0;startSize=0;swimlaneHead=0;swimlaneBody=0;top=0;left=0;bottom=0;right=0;collapsible=0;dropTarget=0;fillColor=none;points=[[0,0.5],[1,0.5]];portConstraint=eastwest;rounded=0;shadow=0;labelBackgroundColor=#FFFFFF;sketch=0;strokeColor=#000000;strokeWidth=1;fontSize=12;fontColor=#000000;" parent="343" vertex="1">
                    <mxGeometry width="170" height="40" as="geometry"/>
                </mxCell>
                <mxCell id="345" value="&lt;b&gt;[ADMIN] Template Type Parameters&lt;/b&gt;" style="shape=partialRectangle;html=1;whiteSpace=wrap;connectable=0;overflow=hidden;fillColor=none;top=0;left=0;bottom=0;right=0;pointerEvents=1;rounded=0;shadow=0;labelBackgroundColor=#FFFFFF;sketch=0;strokeColor=#000000;strokeWidth=1;fontSize=12;fontColor=#000000;" parent="344" vertex="1">
                    <mxGeometry width="170" height="40" as="geometry">
                        <mxRectangle width="170" height="40" as="alternateBounds"/>
                    </mxGeometry>
                </mxCell>
                <mxCell id="346" value="" style="shape=tableRow;horizontal=0;startSize=0;swimlaneHead=0;swimlaneBody=0;top=0;left=0;bottom=0;right=0;collapsible=0;dropTarget=0;fillColor=none;points=[[0,0.5],[1,0.5]];portConstraint=eastwest;rounded=0;shadow=0;labelBackgroundColor=#FFFFFF;sketch=0;strokeColor=#000000;strokeWidth=1;fontSize=12;fontColor=#000000;" parent="343" vertex="1">
                    <mxGeometry y="40" width="170" height="40" as="geometry"/>
                </mxCell>
                <mxCell id="347" value="Template Type Parameters UUID" style="shape=partialRectangle;html=1;whiteSpace=wrap;connectable=0;overflow=hidden;fillColor=none;top=0;left=0;bottom=0;right=0;pointerEvents=1;rounded=0;shadow=0;labelBackgroundColor=#FFFFFF;sketch=0;strokeColor=#000000;strokeWidth=1;fontSize=12;fontColor=#000000;" parent="346" vertex="1">
                    <mxGeometry width="170" height="40" as="geometry">
                        <mxRectangle width="170" height="40" as="alternateBounds"/>
                    </mxGeometry>
                </mxCell>
                <mxCell id="348" value="" style="shape=tableRow;horizontal=0;startSize=0;swimlaneHead=0;swimlaneBody=0;top=0;left=0;bottom=0;right=0;collapsible=0;dropTarget=0;fillColor=none;points=[[0,0.5],[1,0.5]];portConstraint=eastwest;rounded=0;shadow=0;labelBackgroundColor=#FFFFFF;sketch=0;strokeColor=#000000;strokeWidth=1;fontSize=12;fontColor=#000000;" parent="343" vertex="1">
                    <mxGeometry y="80" width="170" height="40" as="geometry"/>
                </mxCell>
                <mxCell id="349" value="Template Type Loc Techs UUID" style="shape=partialRectangle;html=1;whiteSpace=wrap;connectable=0;overflow=hidden;fillColor=none;top=0;left=0;bottom=0;right=0;pointerEvents=1;rounded=0;shadow=0;labelBackgroundColor=#FFFFFF;sketch=0;strokeColor=#000000;strokeWidth=1;fontSize=12;fontColor=#000000;" parent="348" vertex="1">
                    <mxGeometry width="170" height="40" as="geometry">
                        <mxRectangle width="170" height="40" as="alternateBounds"/>
                    </mxGeometry>
                </mxCell>
                <mxCell id="350" value="" style="shape=tableRow;horizontal=0;startSize=0;swimlaneHead=0;swimlaneBody=0;top=0;left=0;bottom=0;right=0;collapsible=0;dropTarget=0;fillColor=none;points=[[0,0.5],[1,0.5]];portConstraint=eastwest;rounded=0;shadow=0;labelBackgroundColor=#FFFFFF;sketch=0;strokeColor=#000000;strokeWidth=1;fontSize=12;fontColor=#000000;" parent="343" vertex="1">
                    <mxGeometry y="120" width="170" height="40" as="geometry"/>
                </mxCell>
                <mxCell id="351" value="[ADMIN] Parameters UUID" style="shape=partialRectangle;html=1;whiteSpace=wrap;connectable=0;overflow=hidden;fillColor=none;top=0;left=0;bottom=0;right=0;pointerEvents=1;rounded=0;shadow=0;labelBackgroundColor=#FFFFFF;sketch=0;strokeColor=#000000;strokeWidth=1;fontSize=12;fontColor=#000000;" parent="350" vertex="1">
                    <mxGeometry width="170" height="40" as="geometry">
                        <mxRectangle width="170" height="40" as="alternateBounds"/>
                    </mxGeometry>
                </mxCell>
                <mxCell id="352" value="" style="shape=tableRow;horizontal=0;startSize=0;swimlaneHead=0;swimlaneBody=0;top=0;left=0;bottom=0;right=0;collapsible=0;dropTarget=0;fillColor=none;points=[[0,0.5],[1,0.5]];portConstraint=eastwest;rounded=0;shadow=0;labelBackgroundColor=#FFFFFF;sketch=0;strokeColor=#000000;strokeWidth=1;fontSize=12;fontColor=#000000;" parent="343" vertex="1">
                    <mxGeometry y="160" width="170" height="40" as="geometry"/>
                </mxCell>
                <mxCell id="353" value="Equation" style="shape=partialRectangle;html=1;whiteSpace=wrap;connectable=0;overflow=hidden;fillColor=none;top=0;left=0;bottom=0;right=0;pointerEvents=1;rounded=0;shadow=0;labelBackgroundColor=#FFFFFF;sketch=0;strokeColor=#000000;strokeWidth=1;fontSize=12;fontColor=#000000;" parent="352" vertex="1">
                    <mxGeometry width="170" height="40" as="geometry">
                        <mxRectangle width="170" height="40" as="alternateBounds"/>
                    </mxGeometry>
                </mxCell>
                <mxCell id="354" value="" style="edgeStyle=orthogonalEdgeStyle;html=1;strokeColor=#2b6fc7;fontSize=12;fontColor=#000000;entryX=0;entryY=0.5;entryDx=0;entryDy=0;exitX=1;exitY=0.5;exitDx=0;exitDy=0;" parent="267" source="360" target="271" edge="1">
                    <mxGeometry relative="1" as="geometry">
                        <mxPoint x="240" y="580" as="sourcePoint"/>
                        <mxPoint x="310" y="330" as="targetPoint"/>
                        <Array as="points">
                            <mxPoint x="300" y="280"/>
                            <mxPoint x="300" y="85"/>
                        </Array>
                    </mxGeometry>
                </mxCell>
                <mxCell id="355" value="" style="shape=table;startSize=0;container=1;collapsible=0;childLayout=tableLayout;rounded=0;shadow=0;labelBackgroundColor=#FFFFFF;sketch=0;strokeWidth=1;fontSize=12;fillColor=#f9f7ed;strokeColor=#36393d;" parent="267" vertex="1">
                    <mxGeometry x="60" y="180" width="170" height="200" as="geometry"/>
                </mxCell>
                <mxCell id="356" value="" style="shape=tableRow;horizontal=0;startSize=0;swimlaneHead=0;swimlaneBody=0;top=0;left=0;bottom=0;right=0;collapsible=0;dropTarget=0;fillColor=none;points=[[0,0.5],[1,0.5]];portConstraint=eastwest;rounded=0;shadow=0;labelBackgroundColor=#FFFFFF;sketch=0;strokeColor=#000000;strokeWidth=1;fontSize=12;fontColor=#000000;" parent="355" vertex="1">
                    <mxGeometry width="170" height="40" as="geometry"/>
                </mxCell>
                <mxCell id="357" value="&lt;b&gt;Templates&lt;/b&gt;" style="shape=partialRectangle;html=1;whiteSpace=wrap;connectable=0;overflow=hidden;fillColor=none;top=0;left=0;bottom=0;right=0;pointerEvents=1;rounded=0;shadow=0;labelBackgroundColor=#FFFFFF;sketch=0;strokeColor=#000000;strokeWidth=1;fontSize=12;fontColor=#000000;" parent="356" vertex="1">
                    <mxGeometry width="170" height="40" as="geometry">
                        <mxRectangle width="170" height="40" as="alternateBounds"/>
                    </mxGeometry>
                </mxCell>
                <mxCell id="358" value="" style="shape=tableRow;horizontal=0;startSize=0;swimlaneHead=0;swimlaneBody=0;top=0;left=0;bottom=0;right=0;collapsible=0;dropTarget=0;fillColor=none;points=[[0,0.5],[1,0.5]];portConstraint=eastwest;rounded=0;shadow=0;labelBackgroundColor=#FFFFFF;sketch=0;strokeColor=#000000;strokeWidth=1;fontSize=12;fontColor=#000000;" parent="355" vertex="1">
                    <mxGeometry y="40" width="170" height="40" as="geometry"/>
                </mxCell>
                <mxCell id="359" value="Template UUID" style="shape=partialRectangle;html=1;whiteSpace=wrap;connectable=0;overflow=hidden;fillColor=none;top=0;left=0;bottom=0;right=0;pointerEvents=1;rounded=0;shadow=0;labelBackgroundColor=#FFFFFF;sketch=0;strokeColor=#000000;strokeWidth=1;fontSize=12;fontColor=#000000;" parent="358" vertex="1">
                    <mxGeometry width="170" height="40" as="geometry">
                        <mxRectangle width="170" height="40" as="alternateBounds"/>
                    </mxGeometry>
                </mxCell>
                <mxCell id="360" value="" style="shape=tableRow;horizontal=0;startSize=0;swimlaneHead=0;swimlaneBody=0;top=0;left=0;bottom=0;right=0;collapsible=0;dropTarget=0;fillColor=none;points=[[0,0.5],[1,0.5]];portConstraint=eastwest;rounded=0;shadow=0;labelBackgroundColor=#FFFFFF;sketch=0;strokeColor=#000000;strokeWidth=1;fontSize=12;fontColor=#000000;" parent="355" vertex="1">
                    <mxGeometry y="80" width="170" height="40" as="geometry"/>
                </mxCell>
                <mxCell id="361" value="Template Type UUID" style="shape=partialRectangle;html=1;whiteSpace=wrap;connectable=0;overflow=hidden;fillColor=none;top=0;left=0;bottom=0;right=0;pointerEvents=1;rounded=0;shadow=0;labelBackgroundColor=#FFFFFF;sketch=0;strokeColor=#000000;strokeWidth=1;fontSize=12;fontColor=#000000;" parent="360" vertex="1">
                    <mxGeometry width="170" height="40" as="geometry">
                        <mxRectangle width="170" height="40" as="alternateBounds"/>
                    </mxGeometry>
                </mxCell>
                <mxCell id="362" value="" style="shape=tableRow;horizontal=0;startSize=0;swimlaneHead=0;swimlaneBody=0;top=0;left=0;bottom=0;right=0;collapsible=0;dropTarget=0;fillColor=none;points=[[0,0.5],[1,0.5]];portConstraint=eastwest;rounded=0;shadow=0;labelBackgroundColor=#FFFFFF;sketch=0;strokeColor=#000000;strokeWidth=1;fontSize=12;fontColor=#000000;" parent="355" vertex="1">
                    <mxGeometry y="120" width="170" height="40" as="geometry"/>
                </mxCell>
                <mxCell id="363" value="Model UUID" style="shape=partialRectangle;html=1;whiteSpace=wrap;connectable=0;overflow=hidden;fillColor=none;top=0;left=0;bottom=0;right=0;pointerEvents=1;rounded=0;shadow=0;labelBackgroundColor=#FFFFFF;sketch=0;strokeColor=#000000;strokeWidth=1;fontSize=12;fontColor=#000000;" parent="362" vertex="1">
                    <mxGeometry width="170" height="40" as="geometry">
                        <mxRectangle width="170" height="40" as="alternateBounds"/>
                    </mxGeometry>
                </mxCell>
                <mxCell id="364" value="" style="shape=tableRow;horizontal=0;startSize=0;swimlaneHead=0;swimlaneBody=0;top=0;left=0;bottom=0;right=0;collapsible=0;dropTarget=0;fillColor=none;points=[[0,0.5],[1,0.5]];portConstraint=eastwest;rounded=0;shadow=0;labelBackgroundColor=#FFFFFF;sketch=0;strokeColor=#000000;strokeWidth=1;fontSize=12;fontColor=#000000;" parent="355" vertex="1">
                    <mxGeometry y="160" width="170" height="40" as="geometry"/>
                </mxCell>
                <mxCell id="365" value="Loc UUID" style="shape=partialRectangle;html=1;whiteSpace=wrap;connectable=0;overflow=hidden;fillColor=none;top=0;left=0;bottom=0;right=0;pointerEvents=1;rounded=0;shadow=0;labelBackgroundColor=#FFFFFF;sketch=0;strokeColor=#000000;strokeWidth=1;fontSize=12;fontColor=#000000;" parent="364" vertex="1">
                    <mxGeometry width="170" height="40" as="geometry">
                        <mxRectangle width="170" height="40" as="alternateBounds"/>
                    </mxGeometry>
                </mxCell>
                <mxCell id="366" value="" style="edgeStyle=orthogonalEdgeStyle;html=1;strokeColor=#2b6fc7;fontSize=12;fontColor=#000000;entryX=0;entryY=0.5;entryDx=0;entryDy=0;exitX=-0.008;exitY=0.494;exitDx=0;exitDy=0;exitPerimeter=0;" parent="267" edge="1">
                    <mxGeometry relative="1" as="geometry">
                        <mxPoint x="308.6399999999999" y="839.76" as="sourcePoint"/>
                        <mxPoint x="310" y="550" as="targetPoint"/>
                        <Array as="points">
                            <mxPoint x="270" y="840"/>
                            <mxPoint x="270" y="550"/>
                        </Array>
                    </mxGeometry>
                </mxCell>
                <mxCell id="367" value="" style="shape=table;startSize=0;container=1;collapsible=0;childLayout=tableLayout;rounded=0;shadow=0;labelBackgroundColor=#FFFFFF;sketch=0;strokeWidth=1;fontSize=12;fillColor=#f9f7ed;strokeColor=#36393d;" parent="267" vertex="1">
                    <mxGeometry x="60" y="490" width="170" height="280" as="geometry"/>
                </mxCell>
                <mxCell id="368" value="" style="shape=tableRow;horizontal=0;startSize=0;swimlaneHead=0;swimlaneBody=0;top=0;left=0;bottom=0;right=0;collapsible=0;dropTarget=0;fillColor=none;points=[[0,0.5],[1,0.5]];portConstraint=eastwest;rounded=0;shadow=0;labelBackgroundColor=#FFFFFF;sketch=0;strokeColor=#000000;strokeWidth=1;fontSize=12;fontColor=#000000;" parent="367" vertex="1">
                    <mxGeometry width="170" height="40" as="geometry"/>
                </mxCell>
                <mxCell id="369" value="&lt;b&gt;Template Variables&lt;/b&gt;" style="shape=partialRectangle;html=1;whiteSpace=wrap;connectable=0;overflow=hidden;fillColor=none;top=0;left=0;bottom=0;right=0;pointerEvents=1;rounded=0;shadow=0;labelBackgroundColor=#FFFFFF;sketch=0;strokeColor=#000000;strokeWidth=1;fontSize=12;fontColor=#000000;" parent="368" vertex="1">
                    <mxGeometry width="170" height="40" as="geometry">
                        <mxRectangle width="170" height="40" as="alternateBounds"/>
                    </mxGeometry>
                </mxCell>
                <mxCell id="370" value="" style="shape=tableRow;horizontal=0;startSize=0;swimlaneHead=0;swimlaneBody=0;top=0;left=0;bottom=0;right=0;collapsible=0;dropTarget=0;fillColor=none;points=[[0,0.5],[1,0.5]];portConstraint=eastwest;rounded=0;shadow=0;labelBackgroundColor=#FFFFFF;sketch=0;strokeColor=#000000;strokeWidth=1;fontSize=12;fontColor=#000000;" parent="367" vertex="1">
                    <mxGeometry y="40" width="170" height="40" as="geometry"/>
                </mxCell>
                <mxCell id="371" value="Template Variables UUID" style="shape=partialRectangle;html=1;whiteSpace=wrap;connectable=0;overflow=hidden;fillColor=none;top=0;left=0;bottom=0;right=0;pointerEvents=1;rounded=0;shadow=0;labelBackgroundColor=#FFFFFF;sketch=0;strokeColor=#000000;strokeWidth=1;fontSize=12;fontColor=#000000;" parent="370" vertex="1">
                    <mxGeometry width="170" height="40" as="geometry">
                        <mxRectangle width="170" height="40" as="alternateBounds"/>
                    </mxGeometry>
                </mxCell>
                <mxCell id="372" value="" style="shape=tableRow;horizontal=0;startSize=0;swimlaneHead=0;swimlaneBody=0;top=0;left=0;bottom=0;right=0;collapsible=0;dropTarget=0;fillColor=none;points=[[0,0.5],[1,0.5]];portConstraint=eastwest;rounded=0;shadow=0;labelBackgroundColor=#FFFFFF;sketch=0;strokeColor=#000000;strokeWidth=1;fontSize=12;fontColor=#000000;" parent="367" vertex="1">
                    <mxGeometry y="80" width="170" height="40" as="geometry"/>
                </mxCell>
                <mxCell id="373" value="Templates UUID" style="shape=partialRectangle;html=1;whiteSpace=wrap;connectable=0;overflow=hidden;fillColor=none;top=0;left=0;bottom=0;right=0;pointerEvents=1;rounded=0;shadow=0;labelBackgroundColor=#FFFFFF;sketch=0;strokeColor=#000000;strokeWidth=1;fontSize=12;fontColor=#000000;" parent="372" vertex="1">
                    <mxGeometry width="170" height="40" as="geometry">
                        <mxRectangle width="170" height="40" as="alternateBounds"/>
                    </mxGeometry>
                </mxCell>
                <mxCell id="374" value="" style="shape=tableRow;horizontal=0;startSize=0;swimlaneHead=0;swimlaneBody=0;top=0;left=0;bottom=0;right=0;collapsible=0;dropTarget=0;fillColor=none;points=[[0,0.5],[1,0.5]];portConstraint=eastwest;rounded=0;shadow=0;labelBackgroundColor=#FFFFFF;sketch=0;strokeColor=#000000;strokeWidth=1;fontSize=12;fontColor=#000000;" parent="367" vertex="1">
                    <mxGeometry y="120" width="170" height="40" as="geometry"/>
                </mxCell>
                <mxCell id="375" value="Template Type Variables UUID" style="shape=partialRectangle;html=1;whiteSpace=wrap;connectable=0;overflow=hidden;fillColor=none;top=0;left=0;bottom=0;right=0;pointerEvents=1;rounded=0;shadow=0;labelBackgroundColor=#FFFFFF;sketch=0;strokeColor=#000000;strokeWidth=1;fontSize=12;fontColor=#000000;" parent="374" vertex="1">
                    <mxGeometry width="170" height="40" as="geometry">
                        <mxRectangle width="170" height="40" as="alternateBounds"/>
                    </mxGeometry>
                </mxCell>
                <mxCell id="376" value="" style="shape=tableRow;horizontal=0;startSize=0;swimlaneHead=0;swimlaneBody=0;top=0;left=0;bottom=0;right=0;collapsible=0;dropTarget=0;fillColor=none;points=[[0,0.5],[1,0.5]];portConstraint=eastwest;rounded=0;shadow=0;labelBackgroundColor=#FFFFFF;sketch=0;strokeColor=#000000;strokeWidth=1;fontSize=12;fontColor=#000000;" parent="367" vertex="1">
                    <mxGeometry y="160" width="170" height="40" as="geometry"/>
                </mxCell>
                <mxCell id="377" value="Value" style="shape=partialRectangle;html=1;whiteSpace=wrap;connectable=0;overflow=hidden;fillColor=none;top=0;left=0;bottom=0;right=0;pointerEvents=1;rounded=0;shadow=0;labelBackgroundColor=#FFFFFF;sketch=0;strokeColor=#000000;strokeWidth=1;fontSize=12;fontColor=#000000;" parent="376" vertex="1">
                    <mxGeometry width="170" height="40" as="geometry">
                        <mxRectangle width="170" height="40" as="alternateBounds"/>
                    </mxGeometry>
                </mxCell>
                <mxCell id="704" style="shape=tableRow;horizontal=0;startSize=0;swimlaneHead=0;swimlaneBody=0;top=0;left=0;bottom=0;right=0;collapsible=0;dropTarget=0;fillColor=none;points=[[0,0.5],[1,0.5]];portConstraint=eastwest;rounded=0;shadow=0;labelBackgroundColor=#FFFFFF;sketch=0;strokeColor=#000000;strokeWidth=1;fontSize=12;fontColor=#000000;" vertex="1" parent="367">
                    <mxGeometry y="200" width="170" height="40" as="geometry"/>
                </mxCell>
                <mxCell id="705" value="Timeseries" style="shape=partialRectangle;html=1;whiteSpace=wrap;connectable=0;overflow=hidden;fillColor=none;top=0;left=0;bottom=0;right=0;pointerEvents=1;rounded=0;shadow=0;labelBackgroundColor=#FFFFFF;sketch=0;strokeColor=#000000;strokeWidth=1;fontSize=12;fontColor=#000000;" vertex="1" parent="704">
                    <mxGeometry width="170" height="40" as="geometry">
                        <mxRectangle width="170" height="40" as="alternateBounds"/>
                    </mxGeometry>
                </mxCell>
                <mxCell id="702" style="shape=tableRow;horizontal=0;startSize=0;swimlaneHead=0;swimlaneBody=0;top=0;left=0;bottom=0;right=0;collapsible=0;dropTarget=0;fillColor=none;points=[[0,0.5],[1,0.5]];portConstraint=eastwest;rounded=0;shadow=0;labelBackgroundColor=#FFFFFF;sketch=0;strokeColor=#000000;strokeWidth=1;fontSize=12;fontColor=#000000;" vertex="1" parent="367">
                    <mxGeometry y="240" width="170" height="40" as="geometry"/>
                </mxCell>
                <mxCell id="703" value="Timeseries Meta" style="shape=partialRectangle;html=1;whiteSpace=wrap;connectable=0;overflow=hidden;fillColor=none;top=0;left=0;bottom=0;right=0;pointerEvents=1;rounded=0;shadow=0;labelBackgroundColor=#FFFFFF;sketch=0;strokeColor=#000000;strokeWidth=1;fontSize=12;fontColor=#000000;" vertex="1" parent="702">
                    <mxGeometry width="170" height="40" as="geometry">
                        <mxRectangle width="170" height="40" as="alternateBounds"/>
                    </mxGeometry>
                </mxCell>
                <mxCell id="378" value="" style="edgeStyle=orthogonalEdgeStyle;html=1;strokeColor=#2b6fc7;fontSize=12;fontColor=#000000;" parent="267" target="358" edge="1">
                    <mxGeometry relative="1" as="geometry">
                        <mxPoint x="230" y="595" as="sourcePoint"/>
                        <mxPoint x="300" y="230" as="targetPoint"/>
                        <Array as="points">
                            <mxPoint x="260" y="595"/>
                            <mxPoint x="260" y="240"/>
                        </Array>
                    </mxGeometry>
                </mxCell>
                <mxCell id="379" value="" style="edgeStyle=orthogonalEdgeStyle;html=1;strokeColor=#2b6fc7;fontSize=12;fontColor=#000000;exitX=1;exitY=0.5;exitDx=0;exitDy=0;entryX=0;entryY=0.5;entryDx=0;entryDy=0;" parent="267" source="374" target="282" edge="1">
                    <mxGeometry relative="1" as="geometry">
                        <mxPoint x="240" y="605" as="sourcePoint"/>
                        <mxPoint x="590" y="300" as="targetPoint"/>
                        <Array as="points">
                            <mxPoint x="280" y="630"/>
                            <mxPoint x="280" y="320"/>
                            <mxPoint x="600" y="320"/>
                            <mxPoint x="600" y="10"/>
                        </Array>
                    </mxGeometry>
                </mxCell>
                <mxCell id="380" value="" style="shape=table;startSize=0;container=1;collapsible=0;childLayout=tableLayout;rounded=0;shadow=0;labelBackgroundColor=#FFFFFF;sketch=0;strokeWidth=1;fontSize=12;fillColor=#f9f7ed;strokeColor=#36393d;" parent="267" vertex="1">
                    <mxGeometry x="-210" y="180" width="170" height="80" as="geometry"/>
                </mxCell>
                <mxCell id="381" value="" style="shape=tableRow;horizontal=0;startSize=0;swimlaneHead=0;swimlaneBody=0;top=0;left=0;bottom=0;right=0;collapsible=0;dropTarget=0;fillColor=none;points=[[0,0.5],[1,0.5]];portConstraint=eastwest;rounded=0;shadow=0;labelBackgroundColor=#FFFFFF;sketch=0;strokeColor=#000000;strokeWidth=1;fontSize=12;fontColor=#000000;" parent="380" vertex="1">
                    <mxGeometry width="170" height="40" as="geometry"/>
                </mxCell>
                <mxCell id="382" value="&lt;b&gt;Location Technologies&lt;/b&gt;" style="shape=partialRectangle;html=1;whiteSpace=wrap;connectable=0;overflow=hidden;fillColor=none;top=0;left=0;bottom=0;right=0;pointerEvents=1;rounded=0;shadow=0;labelBackgroundColor=#FFFFFF;sketch=0;strokeColor=#000000;strokeWidth=1;fontSize=12;fontColor=#000000;" parent="381" vertex="1">
                    <mxGeometry width="170" height="40" as="geometry">
                        <mxRectangle width="170" height="40" as="alternateBounds"/>
                    </mxGeometry>
                </mxCell>
                <mxCell id="383" value="" style="shape=tableRow;horizontal=0;startSize=0;swimlaneHead=0;swimlaneBody=0;top=0;left=0;bottom=0;right=0;collapsible=0;dropTarget=0;fillColor=none;points=[[0,0.5],[1,0.5]];portConstraint=eastwest;rounded=0;shadow=0;labelBackgroundColor=#FFFFFF;sketch=0;strokeColor=#000000;strokeWidth=1;fontSize=12;fontColor=#000000;" parent="380" vertex="1">
                    <mxGeometry y="40" width="170" height="40" as="geometry"/>
                </mxCell>
                <mxCell id="384" value="Templates UUID" style="shape=partialRectangle;html=1;whiteSpace=wrap;connectable=0;overflow=hidden;fillColor=none;top=0;left=0;bottom=0;right=0;pointerEvents=1;rounded=0;shadow=0;labelBackgroundColor=#FFFFFF;sketch=0;strokeColor=#000000;strokeWidth=1;fontSize=12;fontColor=#000000;" parent="383" vertex="1">
                    <mxGeometry width="170" height="40" as="geometry">
                        <mxRectangle width="170" height="40" as="alternateBounds"/>
                    </mxGeometry>
                </mxCell>
                <mxCell id="385" value="" style="shape=table;startSize=0;container=1;collapsible=0;childLayout=tableLayout;rounded=0;shadow=0;labelBackgroundColor=#FFFFFF;sketch=0;strokeWidth=1;fontSize=12;fillColor=#f9f7ed;strokeColor=#36393d;" parent="267" vertex="1">
                    <mxGeometry x="-210" y="290" width="170" height="80" as="geometry"/>
                </mxCell>
                <mxCell id="386" value="" style="shape=tableRow;horizontal=0;startSize=0;swimlaneHead=0;swimlaneBody=0;top=0;left=0;bottom=0;right=0;collapsible=0;dropTarget=0;fillColor=none;points=[[0,0.5],[1,0.5]];portConstraint=eastwest;rounded=0;shadow=0;labelBackgroundColor=#FFFFFF;sketch=0;strokeColor=#000000;strokeWidth=1;fontSize=12;fontColor=#000000;" parent="385" vertex="1">
                    <mxGeometry width="170" height="40" as="geometry"/>
                </mxCell>
                <mxCell id="387" value="&lt;meta charset=&quot;utf-8&quot;&gt;&lt;b style=&quot;border-color: rgb(0, 0, 0); color: rgb(0, 0, 0); font-family: Helvetica; font-size: 12px; font-style: normal; font-variant-ligatures: normal; font-variant-caps: normal; letter-spacing: normal; orphans: 2; text-align: center; text-indent: 0px; text-transform: none; widows: 2; word-spacing: 0px; -webkit-text-stroke-width: 0px; text-decoration-thickness: initial; text-decoration-style: initial; text-decoration-color: initial;&quot;&gt;Locations&lt;/b&gt;" style="shape=partialRectangle;html=1;whiteSpace=wrap;connectable=0;overflow=hidden;fillColor=none;top=0;left=0;bottom=0;right=0;pointerEvents=1;rounded=0;shadow=0;labelBackgroundColor=#FFFFFF;sketch=0;strokeColor=#000000;strokeWidth=1;fontSize=12;fontColor=#000000;" parent="386" vertex="1">
                    <mxGeometry width="170" height="40" as="geometry">
                        <mxRectangle width="170" height="40" as="alternateBounds"/>
                    </mxGeometry>
                </mxCell>
                <mxCell id="388" value="" style="shape=tableRow;horizontal=0;startSize=0;swimlaneHead=0;swimlaneBody=0;top=0;left=0;bottom=0;right=0;collapsible=0;dropTarget=0;fillColor=none;points=[[0,0.5],[1,0.5]];portConstraint=eastwest;rounded=0;shadow=0;labelBackgroundColor=#FFFFFF;sketch=0;strokeColor=#000000;strokeWidth=1;fontSize=12;fontColor=#000000;" parent="385" vertex="1">
                    <mxGeometry y="40" width="170" height="40" as="geometry"/>
                </mxCell>
                <mxCell id="389" value="Templates UUID" style="shape=partialRectangle;html=1;whiteSpace=wrap;connectable=0;overflow=hidden;fillColor=none;top=0;left=0;bottom=0;right=0;pointerEvents=1;rounded=0;shadow=0;labelBackgroundColor=#FFFFFF;sketch=0;strokeColor=#000000;strokeWidth=1;fontSize=12;fontColor=#000000;" parent="388" vertex="1">
                    <mxGeometry width="170" height="40" as="geometry">
                        <mxRectangle width="170" height="40" as="alternateBounds"/>
                    </mxGeometry>
                </mxCell>
                <mxCell id="390" value="" style="edgeStyle=orthogonalEdgeStyle;html=1;strokeColor=#2b6fc7;fontSize=12;fontColor=#000000;entryX=0;entryY=0.5;entryDx=0;entryDy=0;" parent="267" target="358" edge="1">
                    <mxGeometry relative="1" as="geometry">
                        <mxPoint x="-40" y="349.94" as="sourcePoint"/>
                        <mxPoint x="40" y="304.94" as="targetPoint"/>
                        <Array as="points">
                            <mxPoint x="-10" y="350"/>
                            <mxPoint x="-10" y="240"/>
                        </Array>
                    </mxGeometry>
                </mxCell>
                <mxCell id="391" value="" style="edgeStyle=orthogonalEdgeStyle;html=1;strokeColor=#2b6fc7;fontSize=12;fontColor=#000000;exitX=1.02;exitY=0.315;exitDx=0;exitDy=0;exitPerimeter=0;" parent="267" source="383" edge="1">
                    <mxGeometry relative="1" as="geometry">
                        <mxPoint x="-30.000000000000227" y="359.94000000000005" as="sourcePoint"/>
                        <mxPoint x="60" y="240" as="targetPoint"/>
                        <Array as="points">
                            <mxPoint x="-37" y="230"/>
                            <mxPoint y="230"/>
                            <mxPoint y="240"/>
                        </Array>
                    </mxGeometry>
                </mxCell>
                <mxCell id="392" value="" style="shape=table;startSize=0;container=1;collapsible=0;childLayout=tableLayout;rounded=0;shadow=1;labelBackgroundColor=#FFFFFF;sketch=0;strokeWidth=1;fontSize=12;fillColor=#f9f7ed;strokeColor=#36393d;" parent="267" vertex="1">
                    <mxGeometry x="-210" y="25" width="170" height="85" as="geometry"/>
                </mxCell>
                <mxCell id="393" value="" style="shape=tableRow;horizontal=0;startSize=0;swimlaneHead=0;swimlaneBody=0;top=0;left=0;bottom=0;right=0;collapsible=0;dropTarget=0;fillColor=none;points=[[0,0.5],[1,0.5]];portConstraint=eastwest;rounded=0;shadow=0;labelBackgroundColor=#FFFFFF;sketch=0;strokeColor=#000000;strokeWidth=1;fontSize=12;fontColor=#000000;" parent="392" vertex="1">
                    <mxGeometry width="170" height="45" as="geometry"/>
                </mxCell>
                <mxCell id="394" value="&lt;b&gt;Technologies&lt;/b&gt;" style="shape=partialRectangle;html=1;whiteSpace=wrap;connectable=0;overflow=hidden;fillColor=none;top=0;left=0;bottom=0;right=0;pointerEvents=1;rounded=0;shadow=0;labelBackgroundColor=#FFFFFF;sketch=0;strokeColor=#000000;strokeWidth=1;fontSize=12;fontColor=#000000;" parent="393" vertex="1">
                    <mxGeometry width="170" height="45" as="geometry">
                        <mxRectangle width="170" height="45" as="alternateBounds"/>
                    </mxGeometry>
                </mxCell>
                <mxCell id="395" value="" style="shape=tableRow;horizontal=0;startSize=0;swimlaneHead=0;swimlaneBody=0;top=0;left=0;bottom=0;right=0;collapsible=0;dropTarget=0;fillColor=none;points=[[0,0.5],[1,0.5]];portConstraint=eastwest;rounded=0;shadow=0;labelBackgroundColor=#FFFFFF;sketch=0;strokeColor=#000000;strokeWidth=1;fontSize=12;fontColor=#000000;" parent="392" vertex="1">
                    <mxGeometry y="45" width="170" height="40" as="geometry"/>
                </mxCell>
                <mxCell id="396" value="Template Types UUID" style="shape=partialRectangle;html=1;whiteSpace=wrap;connectable=0;overflow=hidden;fillColor=none;top=0;left=0;bottom=0;right=0;pointerEvents=1;rounded=0;shadow=0;labelBackgroundColor=#FFFFFF;sketch=0;strokeColor=#000000;strokeWidth=1;fontSize=12;fontColor=#000000;" parent="395" vertex="1">
                    <mxGeometry width="170" height="40" as="geometry">
                        <mxRectangle width="170" height="40" as="alternateBounds"/>
                    </mxGeometry>
                </mxCell>
                <mxCell id="397" value="" style="edgeStyle=orthogonalEdgeStyle;html=1;strokeColor=#2b6fc7;fontSize=12;fontColor=#000000;entryX=0;entryY=0.5;entryDx=0;entryDy=0;exitX=1;exitY=0.5;exitDx=0;exitDy=0;" parent="267" source="395" target="271" edge="1">
                    <mxGeometry relative="1" as="geometry">
                        <mxPoint x="240" y="290" as="sourcePoint"/>
                        <mxPoint x="400" y="95" as="targetPoint"/>
                        <Array as="points">
                            <mxPoint x="-40" y="85"/>
                        </Array>
                    </mxGeometry>
                </mxCell>
                <mxCell id="666" value="&lt;font color=&quot;#000000&quot; style=&quot;font-size: 18px; background-color: rgb(233, 233, 233);&quot;&gt;Existing tables that will need new columns&lt;/font&gt;" style="text;strokeColor=none;align=center;fillColor=none;html=1;verticalAlign=middle;whiteSpace=wrap;rounded=0;strokeWidth=2;" parent="267" vertex="1">
                    <mxGeometry x="-220" y="-90" width="190" height="90" as="geometry"/>
                </mxCell>
                <mxCell id="667" value="&lt;font color=&quot;#000000&quot; style=&quot;font-size: 18px; background-color: rgb(255, 242, 204);&quot;&gt;Template model relationship tables&lt;/font&gt;" style="text;strokeColor=none;align=center;fillColor=none;html=1;verticalAlign=middle;whiteSpace=wrap;rounded=0;strokeWidth=2;" parent="267" vertex="1">
                    <mxGeometry x="30" y="-90" width="240" height="90" as="geometry"/>
                </mxCell>
                <mxCell id="668" value="&lt;font color=&quot;#000000&quot; style=&quot;font-size: 18px;&quot;&gt;&lt;span style=&quot;background-color: rgb(211, 232, 209);&quot;&gt;Template Type Tables&lt;/span&gt;&lt;br&gt;&lt;/font&gt;" style="text;strokeColor=none;align=center;fillColor=none;html=1;verticalAlign=middle;whiteSpace=wrap;rounded=0;strokeWidth=2;" parent="267" vertex="1">
                    <mxGeometry x="390" y="-110" width="330" height="90" as="geometry"/>
                </mxCell>
            </root>
        </mxGraphModel>
    </diagram>
</mxfile>